<?xml version="1.0" standalone="no"?>
<!DOCTYPE svg PUBLIC "-//W3C//DTD SVG 20010904//EN"
 "http://www.w3.org/TR/2001/REC-SVG-20010904/DTD/svg10.dtd">
<svg version="1.0" xmlns="http://www.w3.org/2000/svg"
 width="640.000000pt" height="640.000000pt" viewBox="0 0 640.000000 640.000000"
 preserveAspectRatio="xMidYMid meet">
<metadata>
Created by potrace 1.14, written by Peter Selinger 2001-2017
</metadata>
<g transform="translate(0.000000,640.000000) scale(0.100000,-0.100000)"
fill="#000000" stroke="none">
<path d="M3064 6238 c-6 -10 82 -13 196 -7 l105 5 -85 4 c-139 6 -212 5 -216
-2z"/>
<path d="M2978 6233 c7 -3 16 -2 19 1 4 3 -2 6 -13 5 -11 0 -14 -3 -6 -6z"/>
<path d="M2868 6223 c7 -3 16 -2 19 1 4 3 -2 6 -13 5 -11 0 -14 -3 -6 -6z"/>
<path d="M3391 6226 c2 -3 65 -14 139 -26 74 -12 153 -28 175 -35 22 -7 56
-16 75 -20 19 -4 40 -10 45 -14 6 -3 12 -6 15 -7 5 -1 15 -5 102 -40 60 -25
123 -60 199 -112 26 -18 50 -32 53 -32 6 0 111 -66 134 -84 160 -127 361 -385
452 -580 15 -32 30 -52 32 -45 5 16 -8 44 -71 157 -16 29 -27 61 -24 70 4 13
3 14 -5 3 -8 -11 -12 -10 -21 7 -6 12 -10 27 -9 34 2 7 -2 12 -9 11 -7 -2 -10
3 -7 10 10 28 -286 329 -393 400 -39 25 -131 77 -205 115 -115 60 -173 83
-363 142 -68 21 -327 59 -314 46z"/>
<path d="M2729 6210 c-9 -5 -47 -10 -85 -11 -47 -1 -93 -11 -144 -29 -118 -44
-160 -62 -160 -72 0 -11 18 -10 25 3 4 5 12 8 18 6 7 -2 19 1 27 8 8 7 47 23
85 36 81 27 65 23 178 38 48 7 97 16 110 21 20 8 20 9 -8 9 -16 0 -37 -4 -46
-9z"/>
<path d="M2245 6055 c-38 -19 -65 -34 -58 -34 13 -1 143 58 143 64 0 9 -16 4
-85 -30z"/>
<path d="M2105 5994 c-27 -13 -39 -21 -26 -18 34 9 91 33 91 39 0 8 -13 4 -65
-21z"/>
<path d="M1990 5960 c-14 -4 -68 -22 -122 -39 -53 -17 -116 -43 -140 -59 -39
-27 -151 -72 -253 -102 -58 -17 -146 -52 -142 -56 5 -5 148 32 220 56 32 11
103 43 158 70 114 57 243 110 267 110 9 1 31 7 47 15 23 10 25 13 10 13 -11 0
-31 -3 -45 -8z"/>
<path d="M1807 5704 c-21 -14 -43 -24 -50 -22 -7 1 -23 -4 -37 -12 -16 -8 -75
-16 -165 -20 l-140 -6 79 -8 c44 -5 110 -6 148 -3 37 3 68 3 68 -1 0 -3 -21
-26 -47 -50 -27 -24 -39 -38 -28 -31 11 8 22 16 25 19 23 25 147 123 171 135
16 9 29 18 29 20 0 10 -16 3 -53 -21z"/>
<path d="M1258 5693 c12 -2 30 -2 40 0 9 3 -1 5 -23 4 -22 0 -30 -2 -17 -4z"/>
<path d="M2628 5533 c-18 -21 -42 -64 -43 -78 -1 -5 -4 -17 -7 -25 -20 -47
-38 -115 -48 -188 -15 -101 -10 -267 9 -284 11 -11 12 -3 5 42 -14 87 -8 208
15 300 21 86 64 204 83 228 17 20 3 24 -14 5z"/>
<path d="M1590 5525 c-11 -13 -10 -14 4 -9 9 3 16 10 16 15 0 13 -6 11 -20 -6z"/>
<path d="M2774 5478 c0 -49 -6 -76 -27 -120 -35 -73 -46 -102 -62 -158 -7 -25
-16 -54 -21 -65 -7 -18 -6 -18 9 -6 9 7 17 23 17 34 0 28 101 238 111 231 5
-3 9 -12 9 -21 0 -17 110 -167 117 -160 2 3 -18 41 -45 85 -27 44 -53 93 -59
108 -22 61 -33 101 -33 117 0 9 -4 17 -8 17 -5 0 -8 -28 -8 -62z"/>
<path d="M1550 5490 c-8 -5 -12 -12 -9 -15 4 -3 12 1 19 10 14 17 11 19 -10 5z"/>
<path d="M1494 5438 l-29 -33 33 29 c17 17 32 31 32 33 0 8 -8 1 -36 -29z"/>
<path d="M3185 5430 c3 -5 8 -10 11 -10 2 0 4 5 4 10 0 6 -5 10 -11 10 -5 0
-7 -4 -4 -10z"/>
<path d="M2506 5404 c-23 -23 -20 -30 4 -9 11 10 20 20 20 22 0 7 -9 2 -24
-13z"/>
<path d="M3206 5398 c16 -27 137 -151 282 -290 57 -55 82 -70 82 -48 0 6 -6
10 -12 10 -14 0 -156 136 -275 263 -68 72 -95 94 -77 65z"/>
<path d="M4750 5401 c0 -5 5 -13 10 -16 6 -3 10 -2 10 4 0 5 -4 13 -10 16 -5
3 -10 2 -10 -4z"/>
<path d="M1586 5361 c-11 -12 -17 -24 -14 -27 6 -6 -23 -65 -63 -129 -13 -22
-33 -56 -43 -75 -10 -19 -39 -66 -65 -105 -44 -67 -60 -80 -170 -144 -10 -6
-11 -13 -3 -27 11 -18 11 -18 12 1 0 14 15 28 47 45 26 14 60 35 74 48 26 22
85 108 134 196 97 176 115 212 113 224 -2 10 -8 9 -22 -7z"/>
<path d="M2475 5359 c-4 -6 -5 -12 -2 -15 2 -3 7 2 10 11 7 17 1 20 -8 4z"/>
<path d="M4792 5329 c6 -16 12 -28 14 -26 5 5 -13 57 -20 57 -3 0 0 -14 6 -31z"/>
<path d="M2204 5318 c-4 -13 -25 -61 -46 -107 -44 -93 -119 -186 -259 -323
-82 -80 -103 -108 -80 -108 5 0 12 6 15 13 3 6 3 -8 -1 -33 -9 -65 -11 -109
-14 -249 -3 -117 -5 -129 -34 -188 -17 -35 -35 -60 -39 -56 -4 5 -7 -1 -6 -12
4 -32 1 -45 -9 -45 -5 0 -11 6 -14 13 -2 6 -2 0 0 -15 3 -17 -6 -50 -20 -80
-34 -73 -52 -122 -49 -131 1 -5 -1 -6 -6 -3 -13 8 -14 196 -2 196 7 0 7 6 1
18 -8 16 1 31 54 87 36 38 65 72 65 77 0 5 5 6 11 2 6 -4 5 3 -2 17 l-14 24
-3 -22 c-2 -13 -10 -23 -18 -23 -13 0 -14 14 -11 80 3 44 10 86 15 93 6 7 10
22 10 32 -2 28 32 178 44 192 5 7 7 17 3 23 -4 6 3 31 14 55 12 25 21 49 21
55 0 5 9 24 20 42 11 18 20 40 20 48 -1 25 -93 -169 -117 -245 -29 -89 -53
-209 -53 -260 0 -22 -4 -35 -9 -30 -21 23 -34 123 -39 300 -4 129 -8 177 -13
150 -11 -57 -11 -167 1 -260 5 -44 11 -105 14 -135 7 -77 17 -120 28 -120 5 0
6 -10 3 -21 -5 -15 -4 -19 4 -15 6 4 11 4 11 -1 0 -15 -107 -112 -115 -105 -5
4 -5 2 -2 -5 7 -10 -55 -94 -74 -101 -5 -2 -9 -9 -9 -16 0 -7 -10 -22 -22 -34
-60 -57 -69 -72 -43 -72 8 0 37 28 66 63 28 34 55 66 59 71 11 11 40 -17 40
-38 0 -9 -4 -16 -10 -16 -5 0 -10 7 -10 17 0 32 -14 2 -20 -45 -37 -251 -67
-422 -82 -464 -11 -30 -1 -81 12 -57 12 22 47 222 65 368 9 74 21 143 28 155
10 18 13 4 18 -87 3 -60 11 -113 16 -118 6 -6 16 12 27 48 10 32 26 77 37 100
10 24 19 47 19 51 0 5 11 20 24 34 22 24 36 50 41 73 6 27 18 55 25 55 4 0 11
16 14 35 11 58 23 48 30 -26 4 -40 12 -83 18 -98 15 -41 34 -172 31 -216 -2
-22 -5 -80 -7 -130 -4 -78 -2 -92 17 -115 15 -19 18 -20 13 -5 -20 51 -24 78
-17 98 5 12 5 34 0 49 -8 30 -2 68 12 68 6 0 9 -15 8 -32 -1 -18 2 -72 6 -119
7 -74 5 -95 -14 -152 -25 -79 -66 -159 -76 -149 -4 4 -4 -3 -1 -16 5 -15 1
-30 -13 -48 -12 -15 -21 -32 -21 -38 0 -6 -20 -42 -45 -79 -25 -38 -45 -72
-45 -76 0 -5 -9 -16 -20 -26 -11 -10 -20 -23 -20 -28 0 -6 -12 -26 -27 -46
-16 -20 -27 -40 -25 -45 2 -5 -6 -6 -17 -3 -14 3 -18 1 -14 -9 5 -13 -12 -37
-84 -121 -22 -24 -33 -31 -33 -21 0 9 6 18 13 21 7 2 8 8 3 13 -5 5 -11 4 -13
-4 -3 -6 -9 -9 -14 -6 -6 3 -7 -5 -3 -20 7 -27 -35 -104 -77 -142 -21 -19 -21
-19 -8 9 7 15 16 27 21 27 4 0 8 5 8 12 0 6 -7 4 -18 -5 -10 -10 -24 -17 -30
-17 -11 0 -17 -27 -13 -58 1 -6 -8 -22 -21 -35 -13 -12 -28 -31 -34 -41 -16
-30 -38 -33 -29 -5 l7 24 -17 -24 c-14 -18 -15 -25 -5 -31 14 -8 -9 -42 -67
-100 -34 -34 -119 -146 -194 -255 -34 -49 -77 -112 -96 -138 -20 -26 -33 -50
-31 -53 3 -2 20 18 39 45 102 147 257 337 267 327 3 -3 -5 -33 -17 -66 -58
-160 -94 -354 -95 -520 -1 -92 0 -98 41 -180 51 -103 154 -232 265 -334 101
-91 148 -123 306 -211 94 -52 122 -72 123 -89 0 -16 3 -14 11 9 20 62 20 61
34 30 12 -28 13 -24 8 40 -3 39 -11 83 -17 99 -9 24 -8 31 9 43 35 28 104 54
144 56 22 1 40 5 40 9 0 13 -92 4 -118 -11 -13 -7 -26 -10 -29 -8 -7 8 28 127
38 127 4 0 10 -8 12 -17 4 -14 5 -12 6 5 1 31 42 45 119 39 36 -2 59 0 54 5
-5 5 -60 7 -123 6 l-114 -3 -7 -50 c-3 -27 -8 -59 -11 -70 -3 -11 -6 -25 -6
-32 -1 -6 -15 -14 -32 -18 l-31 -7 4 -67 3 -68 -41 1 c-23 1 -46 4 -50 8 -4 5
-12 8 -18 8 -6 0 -4 -5 4 -10 21 -14 -3 -13 -35 2 -14 6 -25 17 -25 24 0 8 -6
11 -17 7 -10 -4 -14 -2 -10 4 8 12 -14 23 -44 23 -10 0 -19 5 -19 11 0 5 10 9
22 7 11 -2 23 3 26 11 4 11 -4 13 -38 8 -37 -5 -46 -2 -73 24 -18 16 -42 39
-55 51 -18 16 -20 23 -10 30 9 5 5 7 -12 6 -20 -2 -24 1 -22 16 3 13 -1 17
-12 13 -18 -7 -59 31 -49 46 3 6 2 7 -4 4 -5 -3 -21 9 -36 26 -15 18 -39 46
-53 62 -34 40 -66 103 -59 115 4 6 3 19 0 31 -6 19 -7 20 -20 2 -13 -17 -14
-16 -25 12 -6 16 -9 39 -6 50 3 13 -1 27 -12 36 -18 15 -18 21 -12 192 0 16 5
25 11 21 7 -4 9 5 8 22 -5 42 11 154 22 154 4 0 5 7 2 17 -4 10 -2 14 4 10 6
-4 13 16 16 53 8 73 42 183 73 231 13 20 60 81 106 135 75 89 228 283 315 399
39 52 53 62 53 37 0 -20 -24 -177 -40 -257 -21 -107 -32 -297 -27 -450 2 -88
8 -167 12 -176 10 -27 43 -12 37 17 -2 13 -8 24 -12 24 -10 0 -13 227 -2 234
5 3 7 48 4 102 -3 66 -2 95 5 91 7 -4 11 9 12 36 1 23 4 67 6 97 2 30 4 64 5
75 0 12 3 16 8 8 4 -6 7 12 8 40 1 44 3 63 14 97 1 3 8 -8 15 -25 8 -16 14
-25 15 -18 0 7 -5 23 -11 36 -8 18 -8 46 -1 100 8 59 17 85 46 128 32 48 51
55 27 10 -7 -13 -6 -18 5 -18 10 0 14 12 14 42 0 44 15 100 34 124 8 11 13
-33 17 -170 6 -200 23 -315 68 -481 21 -78 27 -115 21 -135 -5 -16 -13 -44
-19 -64 -14 -44 -14 -77 -2 -63 8 8 38 110 55 186 8 34 61 71 134 94 56 18 75
14 96 -18 6 -11 5 -26 -6 -49 -21 -45 -53 -142 -67 -200 -6 -26 -14 -54 -17
-64 -5 -12 -3 -16 6 -13 29 9 91 156 106 249 10 63 27 70 109 50 81 -21 115
-36 115 -54 0 -7 -13 -39 -29 -72 -16 -33 -37 -84 -46 -113 -10 -29 -29 -69
-42 -89 -13 -19 -22 -40 -20 -46 5 -16 45 32 68 82 67 146 94 194 115 208 22
14 26 14 49 -1 85 -56 115 -107 80 -136 -8 -7 -15 -17 -15 -23 0 -6 -9 -20
-19 -31 -11 -12 -31 -50 -46 -86 -15 -36 -32 -68 -38 -72 -6 -4 -8 -10 -4 -14
8 -8 57 34 57 49 0 22 83 176 98 182 18 7 57 -19 86 -58 14 -19 20 -47 24
-109 3 -60 9 -88 22 -103 24 -28 50 -80 50 -102 -1 -21 -30 -108 -49 -141 -10
-20 -10 -26 2 -40 8 -9 18 -32 22 -50 7 -32 6 -34 -16 -27 -13 4 -29 12 -35
17 -25 19 -35 -57 -39 -282 l-3 -225 10 179 11 178 44 -5 c49 -5 96 -38 146
-100 l30 -36 -24 -47 c-16 -30 -55 -72 -111 -120 -48 -41 -92 -74 -97 -74 -5
0 -12 -4 -15 -9 -5 -7 -38 -238 -52 -356 -2 -16 -6 -43 -9 -60 -5 -25 -4 -27
5 -12 7 10 18 62 26 115 20 136 21 140 54 157 16 8 41 27 55 41 15 14 28 24
31 21 6 -5 -31 -160 -46 -192 -11 -26 -20 -79 -10 -68 4 4 19 47 34 96 15 48
29 87 32 87 6 0 0 -70 -16 -197 -15 -110 -5 -199 41 -368 17 -60 35 -126 40
-145 21 -81 52 -176 62 -188 6 -7 14 -43 17 -80 7 -65 7 -65 9 -16 1 44 5 53
32 73 31 23 31 24 25 90 -7 74 -43 199 -62 218 -7 7 -16 27 -19 45 -4 18 -10
35 -14 38 -3 3 -17 28 -30 57 -23 50 -24 59 -18 195 7 162 30 341 57 439 17
63 36 109 45 109 9 0 57 -120 81 -199 20 -69 23 -100 19 -156 -4 -57 -3 -65 6
-42 6 15 14 27 17 27 12 0 39 -88 62 -199 21 -95 21 -112 11 -215 -7 -61 -18
-147 -25 -191 -8 -44 -19 -120 -26 -170 -7 -50 -19 -115 -27 -145 -8 -30 -18
-70 -23 -87 l-8 -33 67 0 c62 0 67 2 79 28 13 28 30 126 34 202 3 40 5 45 26
43 28 -3 29 17 1 24 -17 5 -20 11 -15 37 31 181 33 549 3 631 -8 22 -20 58
-27 80 -7 22 -35 88 -61 147 -27 59 -49 113 -49 120 0 6 15 -2 33 -18 37 -35
145 -117 175 -133 11 -6 39 -11 61 -11 62 0 77 21 117 168 7 24 24 11 24 -18
0 -16 4 -30 9 -30 4 0 4 24 -1 53 -32 183 -52 278 -65 317 -9 25 -21 72 -28
105 -7 33 -21 85 -30 115 -9 30 -19 67 -22 82 -3 17 -26 45 -61 75 -37 32 -62
64 -78 100 -24 53 -24 54 -7 114 10 33 30 74 45 91 39 44 45 65 61 235 1 12
-2 23 -8 25 -5 2 -14 -28 -18 -67 -12 -101 -26 -141 -70 -197 -34 -42 -40 -57
-45 -114 -4 -51 -1 -68 11 -82 9 -10 20 -33 23 -50 4 -18 12 -32 18 -32 22 -1
95 -77 102 -106 4 -16 10 -33 14 -39 4 -5 10 -20 13 -32 4 -20 1 -23 -22 -23
-26 0 -77 -29 -135 -77 -16 -13 -30 -22 -32 -21 -1 2 6 46 16 98 10 52 16 97
14 99 -5 6 -24 -48 -24 -69 0 -30 -42 -153 -58 -172 -8 -10 -21 -18 -29 -18
-7 0 -13 -6 -13 -12 0 -7 -11 -26 -24 -43 l-24 -30 -24 26 c-34 36 -49 132
-57 364 l-7 190 25 22 c30 27 45 25 49 -5 2 -12 7 -22 12 -22 17 0 22 46 19
183 l-4 140 65 27 c36 14 98 42 138 62 39 20 72 32 72 27 0 -16 16 -9 63 27
28 22 53 34 62 30 9 -3 36 -50 61 -103 61 -131 58 -125 77 -137 25 -16 33 2
10 27 -11 12 -33 54 -48 92 -16 39 -37 83 -48 98 -19 28 -19 28 4 54 29 31 82
55 104 47 8 -4 47 -53 86 -110 71 -104 140 -177 147 -155 2 6 -16 33 -40 60
-23 26 -56 74 -73 106 -16 32 -42 72 -57 89 l-28 31 35 30 c41 35 43 42 13 47
-31 4 -36 54 -10 99 25 45 103 100 150 106 36 5 40 3 55 -30 23 -47 21 -62 -8
-81 -28 -18 -61 -64 -52 -72 3 -4 24 13 45 37 l40 42 95 -43 c53 -24 105 -51
116 -60 46 -34 54 -214 16 -346 -21 -72 -35 -99 -79 -153 -56 -68 -149 -160
-221 -219 l-40 -32 36 6 c34 5 36 4 47 -34 7 -22 12 -49 12 -60 0 -12 8 -45
19 -74 10 -29 24 -73 31 -98 8 -25 17 -49 20 -55 4 -5 14 -35 23 -65 44 -153
70 -240 87 -290 10 -30 21 -71 25 -90 4 -19 11 -39 15 -45 4 -5 11 -26 15 -45
23 -109 136 -397 185 -470 24 -36 79 -127 108 -180 14 -25 32 -53 41 -64 9
-10 28 -48 44 -85 18 -45 25 -55 21 -31 -9 46 -82 196 -118 240 -40 49 -164
286 -186 357 -7 21 -16 43 -20 48 -4 6 -15 37 -25 70 -10 33 -25 83 -33 110
-19 59 -19 97 -2 185 16 84 27 221 18 226 -9 6 -15 -23 -23 -111 -9 -99 -16
-139 -24 -148 -8 -8 -44 94 -80 228 -11 39 -36 117 -56 175 -37 107 -46 207
-22 238 22 28 149 7 205 -34 17 -14 32 -20 32 -14 0 5 18 27 41 47 68 62 99
144 64 173 -14 11 -14 10 -5 -15 9 -23 6 -34 -15 -69 -27 -44 -48 -70 -83
-100 -20 -17 -24 -18 -39 -4 -32 28 -125 54 -175 50 -27 -2 -48 -8 -48 -13 0
-5 -4 -9 -9 -9 -5 0 -14 21 -20 47 l-12 47 65 65 66 66 -5 -94 c-4 -78 -3 -91
9 -82 8 7 14 35 15 74 2 99 11 142 38 173 44 51 72 108 86 175 13 62 60 159
77 159 4 0 10 -6 13 -14 3 -8 18 -23 32 -32 38 -25 55 -5 33 39 -32 61 -58
169 -46 185 10 11 15 7 30 -20 10 -18 26 -45 36 -59 9 -14 30 -45 45 -68 16
-24 31 -41 33 -38 3 3 -13 31 -35 62 -23 32 -41 62 -41 66 0 5 -15 32 -33 61
-44 69 -99 202 -127 303 -11 44 -26 94 -31 112 -6 18 -14 81 -19 140 -5 59
-14 158 -19 218 -6 61 -15 160 -20 220 -6 61 -19 175 -30 255 -11 80 -21 149
-21 154 0 5 -2 7 -4 5 -6 -5 10 -201 24 -309 14 -109 40 -416 40 -480 0 -90
-69 -216 -192 -353 -35 -40 -52 -50 -90 -58 -51 -9 -148 -66 -148 -87 0 -26
-43 -95 -77 -125 -20 -18 -44 -39 -52 -48 -16 -17 -148 -109 -156 -109 -2 0
-21 -12 -42 -26 -107 -73 -311 -154 -389 -154 -50 0 -182 49 -324 119 -189 95
-331 178 -357 211 -13 15 -35 31 -50 35 -41 9 -147 81 -187 126 -77 84 -95
154 -131 484 -40 380 -46 428 -55 465 -5 19 -16 73 -25 119 -8 46 -18 87 -20
92 -3 4 -10 82 -16 172 -11 187 -3 303 36 476 6 25 5 32 -3 27 -32 -19 -2 16
95 115 59 60 113 119 120 132 11 18 12 9 6 -60 -6 -81 7 -143 29 -143 5 0 3 9
-5 20 -17 24 -13 107 8 160 7 19 19 62 26 95 11 53 30 109 54 168 4 10 3 17
-3 17 -6 0 -14 -10 -18 -22z m-272 -1849 c-4 -53 -2 -70 7 -65 8 5 11 -14 13
-66 1 -78 2 -89 18 -188 6 -36 8 -75 5 -87 -3 -13 -1 -23 5 -23 5 0 10 6 11
13 0 7 3 6 6 -3 7 -17 64 -70 76 -70 5 0 7 -8 5 -17 -1 -10 11 -31 26 -48 17
-18 27 -23 23 -12 -7 20 -7 20 30 6 22 -8 24 -12 13 -19 -8 -6 -25 -10 -38
-10 -27 0 -92 -32 -117 -56 -14 -14 -21 -15 -36 -6 -10 7 -19 9 -19 5 0 -5 -3
-19 -6 -33 -6 -24 -6 -25 9 -5 13 15 16 16 17 5 0 -13 1 -13 10 0 7 11 9 7 5
-15 -3 -16 -7 -39 -8 -50 -2 -11 -8 -29 -15 -40 -10 -18 -11 -16 -12 17 0 20
-4 38 -9 40 -9 3 -20 72 -27 163 -4 52 -4 53 -13 30 -6 -13 -11 23 -16 100
-17 258 -18 365 -4 403 13 35 42 102 45 102 1 0 -1 -32 -4 -71z m2250 -220 c5
-3 10 -39 11 -80 1 -41 3 -64 5 -51 2 12 6 22 10 22 9 0 32 -73 32 -102 0 -13
12 -34 25 -47 23 -21 29 -40 28 -79 -1 -7 5 -11 12 -8 20 7 25 -16 7 -37 -13
-15 -14 -27 -5 -75 6 -31 14 -65 18 -75 5 -13 3 -16 -8 -11 -8 3 -17 22 -20
42 -12 92 -29 109 -24 25 2 -33 0 -69 -3 -79 -4 -11 -8 3 -8 34 -1 29 -7 62
-13 74 -6 11 -11 37 -12 57 0 20 -2 28 -4 19 -5 -19 -23 -25 -23 -8 0 6 -3 9
-7 8 -5 -1 -30 9 -58 21 -27 13 -60 27 -73 32 -14 5 -20 14 -16 21 4 6 3 8 -3
5 -16 -10 -53 22 -46 40 4 11 3 14 -5 9 -7 -4 -12 -1 -13 6 0 7 -2 24 -3 37
-2 16 10 37 36 65 32 34 40 39 49 26 8 -12 9 -11 7 6 -4 27 19 54 40 47 14 -4
14 -3 3 5 -12 9 -10 17 14 48 20 26 30 33 33 23 3 -8 9 -17 14 -20z m-1886
-410 c41 -25 53 -62 32 -98 -18 -32 -64 -33 -104 -2 -33 26 -37 26 -123 -3
l-71 -24 0 31 c0 54 21 80 75 99 72 24 150 23 191 -3z m1414 -18 c0 -24 -11
-31 -59 -42 l-36 -8 39 35 c45 39 56 42 56 15z m-1309 -96 c5 4 12 -1 15 -9 3
-9 11 -16 16 -16 6 0 8 7 4 15 -3 8 -1 15 4 15 16 0 22 -21 10 -35 -10 -11
-17 -12 -34 -3 -28 15 -36 28 -34 58 1 24 1 24 5 -3 2 -15 9 -25 14 -22z
m-744 3 c-3 -8 -6 -5 -6 6 -1 11 2 17 5 13 3 -3 4 -12 1 -19z m893 -64 c40
-21 70 -44 73 -55 3 -11 9 -19 14 -18 17 3 36 -1 30 -7 -3 -3 -1 -18 4 -32 10
-26 10 -26 -10 -8 -11 10 -18 23 -14 29 3 5 1 7 -5 3 -6 -3 -20 6 -32 21 -11
15 -31 28 -43 30 -12 2 -27 9 -32 17 -6 7 -25 17 -43 20 -31 7 -39 16 -25 29
9 10 9 10 83 -29z m100 -48 c0 -3 -4 -8 -10 -11 -5 -3 -10 -1 -10 4 0 6 5 11
10 11 6 0 10 -2 10 -4z m165 -66 c33 -16 66 -30 73 -30 7 0 38 -11 68 -25 30
-14 68 -25 84 -25 31 0 33 -4 45 -112 5 -49 3 -62 -14 -87 -27 -38 -111 -91
-144 -91 -29 0 -32 12 -27 97 1 29 -2 33 -42 44 -57 16 -68 26 -68 59 0 19
-11 37 -34 58 -19 17 -34 39 -34 49 0 10 -3 35 -7 56 -7 34 -6 37 17 37 13 0
50 -13 83 -30z m13 -258 c2 -7 -4 -15 -13 -18 -20 -8 -27 -1 -19 20 7 18 25
17 32 -2z m35 -64 c-8 -42 -6 -42 -36 -17 -31 24 -34 36 -9 42 45 12 52 8 45
-25z m120 -87 c4 -4 8 -92 8 -195 1 -171 3 -194 25 -259 39 -114 26 -117 -32
-7 -24 45 -48 77 -70 90 -24 15 -37 34 -50 73 -9 29 -23 64 -31 79 -12 25 -11
33 8 75 23 51 29 104 15 142 l-8 23 63 -7 c35 -4 68 -10 72 -14z m471 -472
c30 -24 56 -69 67 -117 17 -75 -52 -244 -105 -258 -56 -14 -231 113 -274 198
-37 74 -33 83 56 125 66 31 181 69 218 72 6 1 23 -8 38 -20z m-1734 -550 c-11
-8 -6 -9 23 -5 27 3 37 1 37 -9 0 -29 -52 -23 -79 9 -12 14 -10 16 10 16 20 0
21 -2 9 -11z"/>
<path d="M1931 3374 c0 -11 3 -14 6 -6 3 7 2 16 -1 19 -3 4 -6 -2 -5 -13z"/>
<path d="M1914 3326 c-3 -8 -4 -23 -2 -33 3 -11 6 -6 9 15 6 34 2 42 -7 18z"/>
<path d="M1952 2940 c0 -14 2 -19 5 -12 2 6 2 18 0 25 -3 6 -5 1 -5 -13z"/>
<path d="M2000 2889 c0 -5 5 -7 10 -4 6 3 10 8 10 11 0 2 -4 4 -10 4 -5 0 -10
-5 -10 -11z"/>
<path d="M4255 2960 c-3 -5 -1 -10 4 -10 6 0 11 5 11 10 0 6 -2 10 -4 10 -3 0
-8 -4 -11 -10z"/>
<path d="M4135 2930 c-31 -8 -30 -9 24 -16 29 -4 32 -2 21 11 -7 8 -13 14 -14
14 0 -1 -14 -5 -31 -9z"/>
<path d="M2419 5301 c-40 -41 -124 -152 -149 -196 -51 -90 -110 -205 -110
-215 0 -18 20 -11 20 8 1 9 9 33 20 52 10 19 26 50 34 69 20 41 90 142 168
239 58 71 67 94 17 43z"/>
<path d="M3694 5309 c30 -96 25 -307 -11 -421 -8 -26 -13 -60 -11 -75 4 -26 4
-26 15 12 7 22 15 57 18 78 4 22 11 37 18 34 12 -4 48 -88 99 -227 56 -156 59
-165 70 -175 15 -14 2 57 -23 124 -16 43 -17 56 -7 62 10 7 8 9 -5 9 -19 0
-32 28 -50 105 -6 28 -15 53 -20 56 -7 5 -14 37 -16 75 -1 7 -9 11 -18 10 -13
-1 -19 8 -21 33 -2 18 0 31 5 28 4 -3 7 35 6 84 -3 90 -25 193 -45 205 -8 5
-9 -1 -4 -17z"/>
<path d="M1359 5303 c-13 -16 -12 -17 4 -4 16 13 21 21 13 21 -2 0 -10 -8 -17
-17z"/>
<path d="M1438 5272 c-1 -4 -20 -21 -41 -37 -38 -28 -74 -82 -63 -93 3 -3 6 0
6 6 0 6 28 38 63 71 34 34 57 61 50 61 -6 0 -13 -4 -15 -8z"/>
<path d="M3491 5234 c0 -11 3 -14 6 -6 3 7 2 16 -1 19 -3 4 -6 -2 -5 -13z"/>
<path d="M4830 5243 c0 -5 10 -19 21 -33 l20 -25 -16 33 c-15 30 -25 41 -25
25z"/>
<path d="M2940 5204 c0 -13 18 -39 24 -34 2 3 -2 14 -10 24 -8 11 -14 16 -14
10z"/>
<path d="M3356 5180 c22 -43 38 -48 17 -6 -9 20 -20 36 -24 36 -4 0 -1 -13 7
-30z"/>
<path d="M4821 5194 c0 -11 3 -14 6 -6 3 7 2 16 -1 19 -3 4 -6 -2 -5 -13z"/>
<path d="M3070 5160 c0 -6 8 -13 18 -17 9 -3 28 -14 42 -23 29 -19 90 -46 75
-33 -20 17 -122 83 -128 83 -4 0 -7 -5 -7 -10z"/>
<path d="M1313 5115 c-3 -9 -3 -18 -1 -21 3 -3 8 4 11 16 6 23 -1 27 -10 5z"/>
<path d="M3080 5124 c0 -3 10 -22 21 -41 23 -37 38 -39 18 -2 -14 26 -39 54
-39 43z"/>
<path d="M3405 5100 c9 -16 20 -30 26 -30 6 0 1 14 -11 30 -12 17 -23 30 -26
30 -2 0 2 -13 11 -30z"/>
<path d="M2633 5032 c-13 -39 -23 -76 -23 -83 0 -7 -7 -21 -16 -31 -16 -17
-18 -17 -31 0 -13 15 -13 15 -7 -8 6 -23 30 -49 45 -50 4 0 9 19 13 42 4 22
16 70 27 104 11 35 19 71 17 79 -2 9 -13 -15 -25 -53z"/>
<path d="M3238 5063 c7 -3 16 -2 19 1 4 3 -2 6 -13 5 -11 0 -14 -3 -6 -6z"/>
<path d="M3770 5028 c0 -16 5 -28 10 -28 13 0 13 20 0 40 -8 12 -10 9 -10 -12z"/>
<path d="M4906 5000 c4 -25 10 -49 14 -53 4 -5 4 13 -1 39 -12 61 -22 72 -13
14z"/>
<path d="M1652 4980 c0 -19 2 -27 5 -17 2 9 2 25 0 35 -3 9 -5 1 -5 -18z"/>
<path d="M3320 4960 c-13 -9 -13 -10 0 -10 8 0 22 5 30 10 13 9 13 10 0 10 -8
0 -22 -5 -30 -10z"/>
<path d="M3792 4940 c0 -14 2 -19 5 -12 2 6 2 18 0 25 -3 6 -5 1 -5 -13z"/>
<path d="M1561 4920 c-11 -33 -47 -53 -116 -64 -22 -4 -47 -12 -55 -17 -16
-11 3 -9 112 14 67 14 67 15 78 61 10 44 -4 48 -19 6z"/>
<path d="M3268 4943 c7 -3 16 -2 19 1 4 3 -2 6 -13 5 -11 0 -14 -3 -6 -6z"/>
<path d="M2987 4909 c23 -23 36 -30 50 -24 13 5 15 9 4 12 -7 3 -22 14 -32 24
-11 11 -27 19 -36 19 -14 0 -11 -7 14 -31z"/>
<path d="M3165 4929 c18 -5 43 -5 60 0 25 8 20 9 -30 9 -51 0 -55 -1 -30 -9z"/>
<path d="M3050 4920 c0 -5 14 -7 33 -3 45 8 47 13 4 13 -20 0 -37 -4 -37 -10z"/>
<path d="M4921 4903 c0 -10 4 -27 9 -38 7 -17 9 -15 9 12 1 17 -3 35 -9 38 -5
3 -10 -2 -9 -12z"/>
<path d="M2945 4901 c-3 -5 -1 -12 5 -16 5 -3 10 1 10 9 0 18 -6 21 -15 7z"/>
<path d="M3098 4893 c7 -3 16 -2 19 1 4 3 -2 6 -13 5 -11 0 -14 -3 -6 -6z"/>
<path d="M3822 4860 c0 -14 2 -19 5 -12 2 6 2 18 0 25 -3 6 -5 1 -5 -13z"/>
<path d="M4361 4864 c0 -11 3 -14 6 -6 3 7 2 16 -1 19 -3 4 -6 -2 -5 -13z"/>
<path d="M1546 4841 c-4 -7 -5 -15 -2 -18 9 -9 19 4 14 18 -4 11 -6 11 -12 0z"/>
<path d="M1266 4823 c20 -15 68 -18 60 -4 -3 5 -22 11 -42 13 -32 4 -34 3 -18
-9z"/>
<path d="M1348 4823 c7 -3 16 -2 19 1 4 3 -2 6 -13 5 -11 0 -14 -3 -6 -6z"/>
<path d="M2319 4804 c-30 -32 -131 -89 -195 -111 -27 -8 -56 -22 -65 -29 -8
-8 -20 -14 -25 -14 -12 -1 -72 -50 -60 -50 5 0 17 6 25 13 19 16 134 63 176
72 17 3 63 22 104 42 56 27 75 32 81 22 6 -9 14 -2 29 22 12 19 21 41 21 49
-1 8 -8 3 -16 -12 -14 -27 -54 -40 -54 -18 0 6 5 10 10 10 6 0 10 7 10 15 0
22 -13 18 -41 -11z"/>
<path d="M4276 4780 c3 -14 11 -32 16 -40 6 -10 7 -7 2 10 -3 14 -11 32 -16
40 -6 10 -7 7 -2 -10z"/>
<path d="M1522 4755 c-17 -58 -14 -88 4 -37 8 24 13 51 11 60 -2 10 -8 1 -15
-23z"/>
<path d="M4952 4750 c0 -19 2 -27 5 -17 2 9 2 25 0 35 -3 9 -5 1 -5 -18z"/>
<path d="M1801 4734 c0 -11 3 -14 6 -6 3 7 2 16 -1 19 -3 4 -6 -2 -5 -13z"/>
<path d="M3652 4725 c0 -16 2 -22 5 -12 2 9 2 23 0 30 -3 6 -5 -1 -5 -18z"/>
<path d="M3948 4745 c-3 -6 -6 -32 -6 -58 0 -25 -3 -61 -7 -78 -5 -22 -4 -29
4 -25 6 4 11 24 11 44 l0 37 26 -50 c15 -28 35 -59 45 -71 11 -11 19 -28 19
-37 0 -9 4 -18 9 -22 6 -3 13 -27 17 -53 4 -26 10 -56 15 -67 7 -18 8 -18 8 5
1 14 -4 42 -10 63 -6 21 -9 43 -7 48 2 6 34 -11 71 -38 36 -26 85 -61 107 -76
22 -16 54 -52 70 -80 39 -68 38 -53 0 26 -36 71 -91 157 -103 157 -4 0 4 -17
17 -37 14 -20 23 -39 21 -42 -9 -8 -112 69 -178 133 -71 69 -107 129 -116 191
-4 22 -9 35 -13 30z"/>
<path d="M4411 4684 c0 -11 3 -14 6 -6 3 7 2 16 -1 19 -3 4 -6 -2 -5 -13z"/>
<path d="M3343 4670 c-69 -24 -98 -46 -167 -124 -32 -35 -60 -67 -64 -70 -3
-3 1 -6 9 -6 8 0 22 14 31 30 18 32 46 43 33 13 -5 -10 -15 -44 -24 -75 -15
-56 -15 -56 9 -77 14 -11 28 -17 31 -13 4 4 17 36 29 72 31 90 54 124 105 158
33 22 61 31 112 36 94 9 156 -11 223 -71 104 -93 134 -172 134 -351 l0 -124
22 28 c57 71 66 185 25 311 -35 108 -76 165 -161 223 -90 61 -241 79 -347 40z"/>
<path d="M1481 4606 c-7 -32 -11 -60 -8 -62 7 -7 30 93 25 107 -2 7 -10 -14
-17 -45z"/>
<path d="M3132 4615 c-25 -25 -43 -48 -40 -50 3 -3 27 17 55 45 28 27 46 50
40 50 -5 0 -30 -20 -55 -45z"/>
<path d="M4322 4630 c0 -19 2 -27 5 -17 2 9 2 25 0 35 -3 9 -5 1 -5 -18z"/>
<path d="M4140 4565 c22 -24 30 -29 30 -22 0 8 -38 47 -45 47 -5 0 2 -11 15
-25z"/>
<path d="M1560 4543 c0 -10 -9 -29 -20 -43 -11 -14 -20 -28 -20 -32 0 -3 -24
-57 -54 -120 -80 -169 -116 -282 -115 -359 l2 -64 7 65 c6 68 26 135 66 231
13 31 24 62 24 68 0 6 4 11 8 11 4 0 14 17 21 38 8 20 33 77 57 125 48 97 48
97 34 97 -5 0 -10 -8 -10 -17z"/>
<path d="M1756 4534 c-9 -23 -2 -28 13 -10 7 8 8 17 3 20 -6 3 -13 -1 -16 -10z"/>
<path d="M3375 4518 c-69 -46 -84 -88 -84 -241 -1 -121 19 -230 56 -301 22
-43 28 -16 9 41 -18 53 -20 100 -6 137 13 36 30 32 30 -6 1 -21 10 -44 27 -63
23 -27 33 -30 81 -29 62 0 78 14 88 73 8 55 24 88 33 72 5 -7 12 -12 17 -12 5
0 9 -30 9 -67 0 -53 3 -67 15 -67 27 0 36 122 16 224 -34 172 -97 259 -194
269 -41 3 -54 -1 -97 -30z m73 -90 c43 -41 16 -104 -49 -114 -29 -5 -41 -2
-59 16 -18 18 -21 30 -16 59 11 69 70 88 124 39z m37 -181 c0 -26 -20 -25 -23
2 -3 16 1 22 10 19 7 -3 13 -12 13 -21z"/>
<path d="M3904 4516 c-3 -8 -4 -27 -2 -43 3 -25 4 -24 14 15 10 38 1 61 -12
28z"/>
<path d="M1451 4482 c-7 -24 -10 -56 -8 -70 4 -24 4 -23 6 6 0 18 6 42 12 53
5 11 9 28 6 37 -2 10 -9 -1 -16 -26z"/>
<path d="M4191 4503 c7 -12 15 -20 18 -17 3 2 -3 12 -13 22 -17 16 -18 16 -5
-5z"/>
<path d="M1780 4465 c0 -8 5 -15 10 -15 6 0 10 7 10 15 0 8 -4 15 -10 15 -5 0
-10 -7 -10 -15z"/>
<path d="M4362 4450 c0 -19 3 -57 8 -85 l7 -50 1 45 c1 25 -3 63 -7 85 l-9 40
0 -35z"/>
<path d="M4480 4461 c0 -5 5 -13 10 -16 6 -3 10 -2 10 4 0 5 -4 13 -10 16 -5
3 -10 2 -10 -4z"/>
<path d="M2321 4457 c2 -2 30 -18 62 -35 48 -27 55 -29 45 -12 -7 11 -33 27
-57 35 -44 15 -58 18 -50 12z"/>
<path d="M2160 4440 c-13 -8 -13 -10 2 -10 9 0 20 5 23 10 8 13 -5 13 -25 0z"/>
<path d="M1636 4424 c-4 -9 -4 -19 -1 -22 3 -3 5 1 5 9 0 11 2 11 10 -1 8 -13
10 -13 10 2 0 23 -17 31 -24 12z"/>
<path d="M2222 4397 c-48 -14 -111 -70 -147 -132 -22 -37 -29 -56 -66 -175
-20 -63 -17 -212 5 -275 24 -69 51 -109 81 -123 40 -18 51 -14 27 11 -11 12
-28 38 -35 57 -21 49 -30 185 -17 245 5 28 14 75 20 104 15 87 54 155 107 190
26 17 57 31 70 31 34 0 106 -35 145 -70 18 -17 37 -29 43 -27 9 4 10 16 2 86
-1 17 -16 32 -52 52 -60 33 -125 42 -183 26z"/>
<path d="M1431 4354 c0 -11 3 -14 6 -6 3 7 2 16 -1 19 -3 4 -6 -2 -5 -13z"/>
<path d="M5001 4276 c-1 -42 2 -57 9 -50 8 8 8 27 2 60 l-10 49 -1 -59z"/>
<path d="M4092 4300 c0 -14 2 -19 5 -12 2 6 2 18 0 25 -3 6 -5 1 -5 -13z"/>
<path d="M2250 4231 c-35 -37 -57 -81 -40 -81 4 0 13 7 21 16 15 18 58 11 77
-13 21 -28 15 -81 -13 -108 -43 -44 -94 -23 -96 38 0 32 0 32 -11 7 -13 -33
-3 -208 17 -285 20 -77 51 -137 88 -175 42 -43 103 -43 146 1 17 17 31 35 31
40 0 17 -27 9 -50 -16 -66 -70 -159 6 -184 150 -4 22 -9 49 -12 60 -4 16 -3
17 5 5 6 -8 11 -12 11 -8 0 3 13 -7 29 -23 24 -23 38 -29 74 -29 43 0 45 1 61
43 9 23 16 62 16 85 l0 42 25 -16 c23 -15 25 -23 25 -88 0 -45 5 -79 13 -90
13 -17 14 -17 20 -2 12 32 -1 211 -22 294 -21 84 -64 162 -101 182 -10 5 -35
10 -56 10 -30 0 -44 -7 -74 -39z m80 -262 c0 -10 -4 -19 -10 -19 -5 0 -10 12
-10 26 0 14 4 23 10 19 6 -3 10 -15 10 -26z"/>
<path d="M4387 4228 c-2 -18 -3 -35 0 -38 7 -8 23 24 23 48 0 34 -17 26 -23
-10z"/>
<path d="M4890 4242 c0 -5 7 -17 16 -28 14 -17 15 -17 10 -1 -3 10 -6 23 -6
28 0 5 -4 9 -10 9 -5 0 -10 -4 -10 -8z"/>
<path d="M1676 4227 c3 -10 9 -15 12 -12 3 3 0 11 -7 18 -10 9 -11 8 -5 -6z"/>
<path d="M1548 4223 c-10 -2 -18 -9 -18 -14 0 -14 16 -11 30 6 7 8 11 14 9 14
-2 -1 -12 -3 -21 -6z"/>
<path d="M1650 4220 c0 -5 5 -10 11 -10 5 0 7 5 4 10 -3 6 -8 10 -11 10 -2 0
-4 -4 -4 -10z"/>
<path d="M4564 4204 c3 -9 6 -23 6 -31 0 -9 3 -13 7 -10 3 4 17 -8 30 -25 34
-47 28 -24 -9 33 -32 49 -45 63 -34 33z"/>
<path d="M5011 4194 c0 -11 3 -14 6 -6 3 7 2 16 -1 19 -3 4 -6 -2 -5 -13z"/>
<path d="M4890 4183 c0 -18 26 -80 43 -103 l19 -25 -7 25 c-4 14 -12 28 -17
31 -6 4 -11 21 -12 40 -1 18 -7 34 -14 37 -6 2 -12 0 -12 -5z"/>
<path d="M1472 4158 c-15 -15 -16 -38 -1 -38 5 0 7 5 3 12 -4 6 1 17 11 25 11
7 14 13 9 13 -6 0 -15 -5 -22 -12z"/>
<path d="M4940 4148 c0 -9 5 -20 11 -23 6 -4 8 -14 4 -24 -4 -11 -3 -13 5 -5
8 8 6 19 -5 40 -9 18 -15 23 -15 12z"/>
<path d="M5019 4080 c-1 -36 -2 -96 -1 -135 1 -50 -1 -63 -7 -45 -5 14 -10 21
-10 15 -1 -5 -9 6 -18 25 -42 93 -8 -57 37 -165 5 -11 12 -31 16 -45 4 -14 15
-36 24 -50 10 -14 20 -36 23 -50 11 -51 -5 98 -19 180 -8 47 -21 141 -28 210
-13 116 -14 120 -17 60z"/>
<path d="M4630 4097 c0 -2 8 -19 17 -38 12 -22 18 -61 20 -113 1 -44 6 -89 12
-100 6 -12 22 -48 36 -80 14 -33 28 -57 31 -54 4 5 -18 63 -47 120 -5 10 -9
47 -9 82 0 63 -29 168 -51 181 -5 4 -9 4 -9 2z"/>
<path d="M4611 4064 c0 -11 3 -14 6 -6 3 7 2 16 -1 19 -3 4 -6 -2 -5 -13z"/>
<path d="M4951 4001 c-1 -20 1 -21 14 -11 16 14 21 25 6 16 -5 -4 -12 0 -14 6
-3 7 -6 2 -6 -11z"/>
<path d="M1742 3920 c0 -14 2 -19 5 -12 2 6 2 18 0 25 -3 6 -5 1 -5 -13z"/>
<path d="M3540 3919 c-35 -20 -80 -21 -125 -5 -17 7 -17 5 4 -13 44 -39 181
-20 181 25 0 19 -18 17 -60 -7z"/>
<path d="M3586 3834 c-44 -13 -97 -24 -117 -24 -46 0 -53 -8 -29 -38 16 -19
23 -21 39 -13 29 16 44 14 37 -6 -5 -13 1 -10 19 7 15 14 35 25 44 25 17 0 97
63 90 69 -2 2 -40 -7 -83 -20z"/>
<path d="M4751 3684 c0 -11 3 -14 6 -6 3 7 2 16 -1 19 -3 4 -6 -2 -5 -13z"/>
<path d="M1661 3674 c0 -11 3 -14 6 -6 3 7 2 16 -1 19 -3 4 -6 -2 -5 -13z"/>
<path d="M1871 3663 c-1 -12 4 -25 9 -28 12 -7 12 2 0 30 -8 19 -9 19 -9 -2z"/>
<path d="M2692 3650 c-26 -24 -28 -50 -7 -90 21 -40 27 -38 19 5 -4 21 -1 48
6 65 16 39 10 45 -18 20z"/>
<path d="M4780 3618 c0 -9 5 -20 10 -23 13 -8 13 5 0 25 -8 13 -10 13 -10 -2z"/>
<path d="M1864 3607 c3 -10 6 -25 6 -33 0 -21 16 -9 23 16 3 12 1 18 -5 14 -6
-4 -15 0 -20 7 -8 11 -8 10 -4 -4z"/>
<path d="M4801 3575 c0 -18 28 -61 29 -44 0 8 -7 24 -15 35 -8 10 -14 15 -14
9z"/>
<path d="M5100 3570 c1 -8 9 -29 18 -46 9 -17 34 -64 56 -105 21 -41 63 -109
92 -152 30 -42 54 -79 54 -82 0 -2 32 -53 72 -112 71 -108 127 -185 354 -487
65 -87 144 -193 174 -236 72 -100 143 -181 137 -155 -3 11 -8 43 -12 70 -3 28
-10 66 -15 85 -5 19 -14 58 -21 85 -13 55 -54 188 -68 220 -5 11 -15 35 -21
53 -7 18 -14 31 -16 29 -2 -2 16 -64 40 -138 24 -74 47 -152 51 -174 4 -22 13
-59 21 -83 18 -51 11 -90 -12 -68 -8 8 -14 18 -14 23 -1 4 -30 44 -65 88 -82
102 -230 292 -275 355 -237 325 -389 555 -480 725 -56 107 -70 128 -70 105z"/>
<path d="M2430 3549 c-33 -15 -63 -20 -110 -18 -55 2 -66 0 -68 -15 -2 -11 4
-19 17 -23 12 -3 21 -10 21 -15 0 -5 5 -6 12 -2 18 11 61 12 75 1 9 -6 15 -4
19 7 3 9 11 16 18 16 6 0 26 14 44 30 50 46 43 50 -28 19z"/>
<path d="M1406 3493 c-21 -24 -66 -67 -100 -95 -89 -73 -639 -617 -732 -723
-238 -271 -418 -535 -429 -628 -4 -36 -3 -37 4 -11 9 34 75 159 117 221 66 98
293 380 382 475 40 43 220 221 347 345 28 27 86 87 131 133 44 47 98 100 120
119 82 70 205 193 202 201 -2 4 -20 -12 -42 -37z"/>
<path d="M1630 3531 c0 -6 5 -11 10 -11 6 0 10 -11 10 -25 0 -14 4 -25 9 -25
12 0 1 48 -15 61 -10 8 -14 8 -14 0z"/>
<path d="M1846 3525 c-9 -26 -7 -32 5 -12 6 10 9 21 6 23 -2 3 -7 -2 -11 -11z"/>
<path d="M1620 3495 c0 -8 4 -15 10 -15 5 0 7 7 4 15 -4 8 -8 15 -10 15 -2 0
-4 -7 -4 -15z"/>
<path d="M4830 3501 c0 -5 5 -13 10 -16 6 -3 10 -2 10 4 0 5 -4 13 -10 16 -5
3 -10 2 -10 -4z"/>
<path d="M2935 3451 c-59 -14 -173 -62 -188 -79 -34 -39 -50 -328 -24 -416 24
-76 189 -157 291 -142 86 12 141 27 156 42 14 15 13 15 -7 5 -22 -11 -161 -29
-203 -26 -46 4 -94 25 -147 64 -56 41 -57 71 -6 131 59 69 141 115 243 140 52
12 101 18 117 14 42 -10 111 -52 124 -76 15 -27 15 -109 0 -136 -7 -13 -7 -23
-2 -27 12 -7 25 16 39 67 13 47 -8 153 -46 227 -35 71 -120 153 -196 191 -59
30 -94 35 -151 21z"/>
<path d="M4866 3440 c6 -26 104 -231 113 -240 4 -3 17 -25 30 -50 13 -25 33
-58 45 -75 12 -16 27 -41 34 -55 7 -14 34 -51 60 -82 26 -30 56 -68 67 -84 11
-15 29 -39 41 -53 12 -14 77 -101 145 -192 249 -333 304 -412 268 -382 -34 28
-143 139 -279 284 -310 332 -376 404 -407 448 -18 25 -33 41 -33 34 0 -6 15
-34 33 -62 17 -28 46 -73 62 -101 40 -68 112 -181 204 -320 42 -63 80 -122 86
-131 39 -63 97 -147 110 -160 8 -9 15 -20 15 -25 0 -14 66 -103 115 -157 25
-26 45 -53 45 -61 0 -7 7 -19 16 -27 9 -7 23 -27 32 -45 21 -41 159 -294 172
-314 33 -54 80 -139 80 -146 0 -4 9 -26 19 -48 58 -124 77 -173 136 -351 73
-223 91 -303 111 -513 17 -173 17 -190 1 -335 -21 -182 -21 -205 -1 -159 8 18
17 67 21 110 3 42 9 82 12 87 4 6 7 72 6 148 0 75 3 129 7 120 3 -10 7 -13 7
-6 1 6 -4 24 -10 39 -5 16 -14 64 -20 109 -5 44 -14 100 -19 125 -6 25 -12 55
-15 68 -11 58 -37 147 -46 159 -6 7 -9 20 -5 28 3 8 1 15 -4 15 -6 0 -10 10
-10 22 0 12 -8 30 -17 41 -14 15 -18 35 -16 86 1 44 -1 59 -7 46 -7 -17 -9
-17 -9 -3 -1 11 -6 15 -16 12 -10 -4 -15 0 -16 12 -4 51 -7 66 -18 77 -6 6
-11 22 -11 35 0 13 -4 20 -10 17 -13 -8 -13 11 0 36 7 13 7 19 0 19 -5 0 -10
-5 -10 -11 0 -5 -4 -7 -10 -4 -5 3 -10 13 -10 21 0 8 5 12 10 9 6 -3 10 -1 10
5 0 6 -8 9 -18 6 -13 -5 -22 4 -34 34 -10 21 -15 47 -12 57 4 12 3 14 -3 6 -6
-9 -13 -3 -22 22 -7 19 -17 35 -22 35 -5 0 -7 11 -3 24 6 26 -13 46 -26 26 -5
-9 -10 -6 -15 11 -4 13 -16 36 -26 50 -10 14 -21 37 -24 52 -4 15 -12 27 -17
27 -6 0 -8 11 -4 23 3 14 -1 32 -9 43 -11 15 -14 16 -15 4 0 -9 5 -21 12 -28
8 -8 8 -12 1 -12 -6 0 -18 15 -28 33 -37 72 -51 93 -82 122 -18 17 -33 38 -33
46 0 9 -9 24 -20 34 -11 10 -20 14 -20 9 0 -5 -10 11 -23 35 -12 24 -35 58
-51 75 -16 17 -35 45 -42 62 -7 17 -27 45 -43 63 -17 18 -31 38 -31 45 0 6
-16 35 -35 63 -19 29 -35 57 -35 63 0 5 -4 10 -9 10 -16 0 -19 39 -3 52 11 10
16 10 19 1 2 -6 13 -21 24 -34 10 -12 19 -27 18 -33 0 -6 -7 -1 -16 12 -22 32
-34 27 -17 -8 20 -39 31 -45 39 -20 4 11 10 18 15 15 5 -3 6 -13 3 -22 -4 -11
-3 -14 6 -9 14 9 63 -32 55 -45 -3 -5 3 -9 13 -10 10 0 13 -3 6 -6 -20 -8 -15
-25 5 -19 18 6 62 -33 62 -54 0 -6 6 -10 13 -10 17 0 69 -54 60 -63 -3 -4 -1
-7 5 -7 6 0 9 -8 6 -17 -5 -15 -4 -16 5 -3 10 13 15 11 37 -15 15 -16 37 -42
50 -57 13 -15 24 -38 24 -50 0 -16 3 -19 9 -10 6 10 21 0 57 -37 71 -72 94
-99 94 -111 0 -5 5 -10 10 -10 6 0 10 -7 10 -15 0 -8 4 -15 9 -15 8 0 37 -43
77 -112 6 -10 15 -19 20 -19 5 1 9 -3 9 -8 0 -9 31 -54 54 -78 8 -8 14 -27 15
-43 1 -21 4 -26 14 -18 17 14 15 2 -5 -30 l-16 -27 23 22 23 21 18 -36 c11
-20 16 -45 13 -57 -6 -19 -5 -19 7 -3 13 16 18 10 57 -65 23 -45 43 -88 42
-94 0 -7 4 -13 8 -13 4 0 19 -25 32 -55 13 -30 28 -55 33 -55 5 0 7 -9 4 -20
-3 -11 -1 -18 4 -14 5 3 9 -1 9 -9 0 -8 11 -39 25 -69 l25 -53 0 38 c0 21 -13
69 -30 107 -16 38 -30 72 -30 78 0 5 -22 46 -50 91 -27 45 -50 84 -50 86 0 1
-18 32 -40 66 -62 100 -80 137 -74 153 8 21 -46 110 -59 97 -6 -6 1 -23 23
-51 18 -22 30 -43 27 -46 -3 -3 -19 14 -36 38 -17 23 -37 50 -46 59 -19 20
-19 29 0 29 8 0 15 5 15 10 0 6 -7 13 -15 16 -8 4 -15 12 -15 20 0 8 -5 14
-11 14 -7 0 -9 10 -5 26 6 22 4 25 -12 20 -12 -4 -25 1 -37 14 -10 11 -14 20
-10 20 5 0 -2 11 -14 24 -13 14 -20 29 -17 35 4 6 1 9 -6 6 -15 -5 -55 22 -45
31 4 4 13 1 22 -6 8 -7 15 -8 15 -3 0 12 -43 53 -56 53 -5 0 -3 -4 5 -9 8 -5
9 -11 3 -15 -10 -6 -79 79 -75 93 1 3 -5 10 -13 14 -21 12 -17 30 6 24 21 -5
28 7 10 18 -6 4 -18 1 -26 -6 -12 -10 -17 -8 -29 7 -33 41 -37 55 -23 71 11
14 10 15 -8 9 -27 -8 -64 33 -58 66 4 19 3 19 -4 5 -7 -17 -9 -17 -21 -3 -7 9
-11 23 -7 31 7 18 -10 20 -18 3 -3 -7 -2 0 1 16 4 18 2 27 -4 23 -17 -11 -55
23 -50 44 3 11 1 22 -4 25 -5 3 -9 0 -9 -5 0 -18 -18 -12 -24 7 -3 9 -5 20 -3
23 1 3 -6 13 -15 23 -10 10 -18 25 -18 34 0 15 -2 15 -10 2 -6 -10 -10 -11
-10 -2 0 6 0 14 0 17 -1 2 -13 17 -28 33 -15 15 -34 37 -42 48 -26 33 -95 119
-100 124 -21 21 -98 118 -103 130 -4 8 -34 53 -67 100 -34 47 -65 94 -70 105
-6 11 -21 38 -34 60 -14 22 -50 90 -81 150 -30 61 -53 99 -49 85z m334 -775
c4 3 10 -2 14 -10 3 -8 0 -17 -6 -21 -12 -8 -28 14 -27 36 0 10 2 11 6 2 2 -6
8 -10 13 -7z m60 -69 c0 -8 -4 -18 -10 -21 -5 -3 -10 3 -10 14 0 12 5 21 10
21 6 0 10 -6 10 -14z m24 -25 c7 -10 -18 -34 -27 -25 -7 8 3 34 13 34 5 0 11
-4 14 -9z"/>
<path d="M4700 3435 c0 -5 5 -17 10 -25 5 -8 10 -10 10 -5 0 6 -5 17 -10 25
-5 8 -10 11 -10 5z"/>
<path d="M4725 3380 c3 -5 8 -10 11 -10 2 0 4 5 4 10 0 6 -5 10 -11 10 -5 0
-7 -4 -4 -10z"/>
<path d="M4746 3347 c3 -10 9 -15 12 -12 3 3 0 11 -7 18 -10 9 -11 8 -5 -6z"/>
<path d="M1355 3292 c-89 -70 -110 -106 -27 -45 18 14 36 22 39 19 3 -3 -16
-50 -42 -103 -60 -120 -75 -153 -71 -153 7 0 102 175 130 238 15 34 26 67 24
73 -2 6 -26 -7 -53 -29z"/>
<path d="M4786 3277 c3 -10 9 -15 12 -12 3 3 0 11 -7 18 -10 9 -11 8 -5 -6z"/>
<path d="M1535 3250 c-3 -5 -1 -10 4 -10 6 0 11 5 11 10 0 6 -2 10 -4 10 -3 0
-8 -4 -11 -10z"/>
<path d="M4811 3230 c14 -31 19 -36 19 -24 0 6 -7 19 -16 30 -14 18 -14 18 -3
-6z"/>
<path d="M1219 3181 c-13 -11 -19 -20 -13 -21 15 0 50 27 43 34 -3 4 -17 -2
-30 -13z"/>
<path d="M1540 3171 c0 -12 5 -21 10 -21 6 0 10 6 10 14 0 8 -4 18 -10 21 -5
3 -10 -3 -10 -14z"/>
<path d="M1802 3160 c0 -14 2 -19 5 -12 2 6 2 18 0 25 -3 6 -5 1 -5 -13z"/>
<path d="M1755 3160 c-3 -5 -1 -10 4 -10 6 0 11 5 11 10 0 6 -2 10 -4 10 -3 0
-8 -4 -11 -10z"/>
<path d="M4866 3130 c7 -28 12 -35 18 -29 2 2 -2 15 -10 29 l-15 25 7 -25z"/>
<path d="M1611 3104 c0 -11 3 -14 6 -6 3 7 2 16 -1 19 -3 4 -6 -2 -5 -13z"/>
<path d="M4890 3083 c0 -5 8 -17 17 -28 14 -18 15 -18 9 -2 -3 10 -6 23 -6 28
0 5 -4 9 -10 9 -5 0 -10 -3 -10 -7z"/>
<path d="M5720 3061 c0 -6 5 -13 10 -16 6 -3 10 1 10 9 0 9 -4 16 -10 16 -5 0
-10 -4 -10 -9z"/>
<path d="M1440 3050 c0 -5 5 -10 11 -10 5 0 7 5 4 10 -3 6 -8 10 -11 10 -2 0
-4 -4 -4 -10z"/>
<path d="M1799 3058 c0 -2 -2 -10 -4 -18 -2 -8 -9 -33 -15 -55 -13 -51 -13
-336 0 -349 7 -7 10 2 10 25 0 18 3 52 7 73 4 28 3 37 -5 32 -9 -5 -12 20 -10
96 2 101 2 102 8 33 4 -38 7 -68 9 -65 4 12 10 230 6 230 -3 0 -5 -1 -6 -2z"/>
<path d="M4920 3020 c0 -5 5 -10 11 -10 5 0 7 5 4 10 -3 6 -8 10 -11 10 -2 0
-4 -4 -4 -10z"/>
<path d="M1427 3014 c-4 -4 -7 -14 -7 -23 0 -11 3 -12 11 -4 6 6 10 16 7 23
-2 6 -7 8 -11 4z"/>
<path d="M5740 3015 c0 -5 5 -17 10 -25 5 -8 10 -10 10 -5 0 6 -5 17 -10 25
-5 8 -10 11 -10 5z"/>
<path d="M1540 3000 c-9 -6 -10 -10 -3 -10 6 0 15 5 18 10 8 12 4 12 -15 0z"/>
<path d="M1216 2958 l-17 -33 20 24 c18 20 27 41 18 41 -1 0 -11 -15 -21 -32z"/>
<path d="M1391 2939 c-18 -42 -10 -45 11 -3 10 19 14 34 10 34 -4 0 -13 -14
-21 -31z"/>
<path d="M950 2945 c-11 -13 -10 -14 4 -9 9 3 16 10 16 15 0 13 -6 11 -20 -6z"/>
<path d="M1430 2940 c0 -5 5 -10 10 -10 6 0 10 5 10 10 0 6 -4 10 -10 10 -5 0
-10 -4 -10 -10z"/>
<path d="M5830 2898 c0 -9 5 -20 10 -23 13 -8 13 5 0 25 -8 13 -10 13 -10 -2z"/>
<path d="M1177 2893 c-4 -3 -7 -11 -7 -17 0 -6 5 -5 12 2 6 6 9 14 7 17 -3 3
-9 2 -12 -2z"/>
<path d="M5790 2865 c0 -8 4 -15 10 -15 5 0 7 7 4 15 -4 8 -8 15 -10 15 -2 0
-4 -7 -4 -15z"/>
<path d="M842 2844 c-7 -8 -8 -14 -3 -14 10 0 25 19 20 25 -2 1 -10 -3 -17
-11z"/>
<path d="M1150 2849 c0 -5 5 -7 10 -4 6 3 10 8 10 11 0 2 -4 4 -10 4 -5 0 -10
-5 -10 -11z"/>
<path d="M3805 2850 c-16 -7 -17 -9 -3 -9 9 -1 20 4 23 9 7 11 7 11 -20 0z"/>
<path d="M5856 2845 c20 -59 31 -85 37 -91 16 -16 4 24 -19 66 -14 25 -22 36
-18 25z"/>
<path d="M3935 2810 c14 -22 25 -44 25 -50 0 -16 83 -160 92 -160 4 0 8 7 8
15 0 8 -4 15 -8 15 -10 0 -52 90 -52 112 0 18 -67 108 -81 108 -5 0 2 -18 16
-40z"/>
<path d="M805 2810 c-3 -5 -1 -10 4 -10 6 0 11 5 11 10 0 6 -2 10 -4 10 -3 0
-8 -4 -11 -10z"/>
<path d="M1311 2779 c-7 -17 -10 -33 -7 -36 3 -4 6 -1 6 5 0 6 7 18 16 27 10
10 13 20 8 25 -6 6 -15 -3 -23 -21z"/>
<path d="M5821 2784 c0 -11 3 -14 6 -6 3 7 2 16 -1 19 -3 4 -6 -2 -5 -13z"/>
<path d="M1097 2747 c-9 -17 -23 -41 -29 -52 -7 -11 -31 -49 -54 -85 -78 -126
-169 -266 -216 -332 -27 -38 -45 -68 -40 -68 8 1 83 101 120 163 28 45 42 43
18 -2 -9 -17 -23 -46 -32 -63 -8 -18 -19 -41 -24 -50 -73 -134 -144 -303 -265
-623 -43 -115 -75 -235 -75 -284 0 -51 8 -34 24 51 8 41 22 92 30 113 9 20 16
43 16 50 0 8 20 56 45 108 25 53 45 106 45 119 0 27 93 265 140 356 16 33 30
64 30 70 0 6 3 12 8 14 4 2 43 75 88 163 45 88 107 209 138 268 32 60 56 111
54 113 -3 2 -12 -11 -21 -29z"/>
<path d="M5831 2733 c-1 -17 4 -35 9 -38 11 -7 11 9 0 45 -8 24 -8 24 -9 -7z"/>
<path d="M724 2729 c-19 -22 -19 -22 4 -10 12 6 22 16 22 21 0 15 -5 12 -26
-11z"/>
<path d="M1280 2720 c0 -5 5 -10 11 -10 5 0 7 5 4 10 -3 6 -8 10 -11 10 -2 0
-4 -4 -4 -10z"/>
<path d="M605 2606 c-47 -51 -96 -107 -108 -123 -12 -16 -33 -40 -46 -54 -12
-13 -35 -40 -50 -59 -14 -19 -31 -39 -37 -45 -47 -45 -170 -240 -194 -308 -13
-36 -27 -64 -31 -62 -4 3 -5 -4 -2 -15 8 -31 20 -24 28 18 4 20 10 42 15 47 4
6 10 22 14 37 16 68 275 406 480 626 17 18 27 32 24 32 -4 0 -45 -42 -93 -94z"/>
<path d="M1672 2660 c0 -14 2 -19 5 -12 2 6 2 18 0 25 -3 6 -5 1 -5 -13z"/>
<path d="M5851 2660 c0 -8 4 -22 9 -30 12 -18 12 -2 0 25 -6 13 -9 15 -9 5z"/>
<path d="M4475 2625 c-16 -7 -41 -18 -55 -23 -20 -9 -12 -10 35 -6 l60 6 246
-245 247 -244 7 -104 c4 -61 2 -149 -5 -214 -6 -60 -15 -153 -20 -205 -6 -52
-21 -138 -35 -190 -14 -52 -35 -131 -46 -175 -22 -89 -39 -153 -69 -265 -11
-41 -24 -91 -29 -110 -5 -19 -17 -59 -25 -89 -9 -29 -16 -60 -16 -69 0 -9 -4
-29 -9 -46 -43 -138 -47 -155 -61 -246 -23 -155 -63 -260 -136 -357 -13 -17
-24 -34 -24 -36 0 -3 16 -5 35 -5 30 0 35 3 30 18 -4 11 2 26 13 37 32 30 52
75 92 213 8 25 17 50 21 55 4 6 9 35 12 65 7 75 33 204 46 227 9 16 10 14 11
-13 0 -16 -6 -36 -12 -44 -11 -12 -10 -12 5 0 14 10 18 25 16 59 -4 85 0 128
12 111 8 -12 9 -10 4 8 -4 13 -2 36 3 50 5 15 15 47 22 72 36 131 68 203 58
132 -3 -18 -1 -35 4 -38 4 -3 9 33 9 80 2 98 1 97 13 115 7 11 10 11 18 0 7
-10 8 -9 4 5 -5 13 8 40 38 86 25 36 50 78 57 93 l12 27 13 -24 c6 -14 15 -44
19 -68 4 -24 13 -52 20 -63 7 -11 16 -41 19 -65 4 -25 14 -63 22 -85 26 -76
39 -564 15 -573 -5 -1 -6 -26 -4 -55 2 -36 0 -46 -6 -32 -6 15 -8 5 -9 -35 0
-30 -5 -56 -10 -58 -7 -2 -9 -16 -5 -34 4 -19 2 -29 -3 -25 -6 3 -8 -8 -6 -27
2 -19 -2 -39 -10 -47 -8 -8 -20 -39 -26 -69 -6 -30 -14 -66 -18 -79 -6 -19 -3
-22 11 -19 12 2 22 17 28 38 5 19 12 37 16 40 4 3 13 32 20 65 7 33 16 67 21
76 4 8 14 58 21 110 7 52 16 98 21 103 4 6 8 28 8 51 0 23 6 47 12 53 9 9 10
15 2 20 -6 4 -9 18 -7 32 9 68 -4 350 -18 364 -5 6 -9 21 -9 35 0 35 -27 160
-46 217 -8 25 -16 54 -17 65 -1 10 -4 19 -8 19 -4 0 -11 15 -14 33 -4 17 -15
41 -24 51 -12 15 -13 20 -3 23 11 4 10 9 -1 26 -8 12 -13 32 -12 44 1 12 -2
20 -7 17 -4 -3 -8 2 -8 10 0 12 5 14 26 6 31 -12 47 3 138 132 18 26 35 46 37
44 2 -3 4 9 5 25 1 15 -2 26 -6 24 -11 -7 -72 93 -65 105 4 6 1 9 -7 8 -19 -4
-16 33 3 45 13 8 23 3 47 -24 35 -38 41 -69 15 -69 -15 0 -16 -2 -3 -10 10 -6
17 -5 23 5 9 17 27 20 27 5 0 -6 13 -24 30 -40 19 -19 28 -35 23 -46 -6 -16
11 -34 32 -34 6 1 2 5 -7 11 -10 5 -18 14 -18 19 0 19 16 9 34 -21 10 -17 31
-43 47 -59 16 -15 29 -29 29 -32 0 -3 18 -25 40 -48 23 -24 40 -52 40 -66 0
-25 16 -41 22 -23 5 16 51 -28 72 -69 9 -18 14 -42 11 -52 -4 -12 -2 -20 4
-20 6 0 11 6 11 13 0 6 9 -3 20 -21 11 -18 20 -41 20 -52 0 -10 5 -22 10 -25
6 -3 10 -17 10 -31 0 -13 5 -24 11 -24 7 0 9 -10 5 -25 -4 -16 -2 -25 5 -25 7
0 10 -12 7 -29 -2 -17 -1 -28 4 -25 4 3 6 -14 3 -38 -4 -30 -2 -39 5 -28 12
19 12 13 1 -27 -10 -33 5 -93 22 -93 4 0 3 -9 -3 -19 -7 -13 -7 -22 0 -26 5
-3 10 -17 10 -31 0 -16 -4 -23 -11 -18 -8 4 -9 -3 -4 -24 4 -18 2 -39 -5 -49
-9 -15 -10 -14 -4 7 5 18 3 22 -5 14 -9 -8 -8 -24 1 -63 7 -33 8 -55 2 -59 -5
-4 -10 -28 -11 -54 -1 -26 -5 -53 -9 -60 -5 -7 -9 -17 -9 -23 -2 -24 -28 -100
-47 -137 -15 -29 -23 -36 -29 -26 -6 9 -9 7 -9 -9 0 -13 5 -23 10 -23 6 0 7
-6 1 -18 -5 -9 -17 -35 -27 -57 -11 -22 -22 -42 -26 -43 -5 -2 -8 -10 -8 -17
0 -19 -24 -62 -52 -93 -38 -43 -41 -52 -19 -52 28 0 130 175 184 315 79 206
116 432 97 591 -15 127 -38 234 -66 311 -29 79 -29 85 -4 54 33 -39 23 -14
-19 47 -63 90 -281 351 -421 502 -54 58 -110 120 -125 138 -15 18 -37 38 -49
44 -15 8 -10 -2 17 -35 l38 -47 -35 -21 c-20 -12 -36 -24 -36 -27 0 -4 21 -34
46 -67 24 -33 47 -70 50 -82 6 -23 4 -30 -19 -68 -7 -11 -27 -46 -45 -77 -33
-57 -34 -58 -77 -58 -24 0 -47 -4 -50 -10 -3 -5 3 -30 14 -55 l20 -46 -49 -79
c-28 -44 -50 -84 -50 -88 0 -5 -10 -17 -22 -28 -21 -19 -21 -19 -14 1 5 11 15
45 23 75 8 30 18 69 23 85 15 51 49 228 64 331 14 103 15 336 2 367 -6 13 -5
16 8 11 9 -3 16 -1 16 5 0 7 -7 14 -15 17 -8 4 -15 10 -15 15 0 5 -17 24 -37
42 -132 113 -423 401 -423 419 0 12 -52 60 -62 57 -2 0 -16 -6 -33 -14z"/>
<path d="M5872 2570 c0 -19 2 -27 5 -17 2 9 2 25 0 35 -3 9 -5 1 -5 -18z"/>
<path d="M4370 2560 c0 -5 5 -10 10 -10 6 0 10 5 10 10 0 6 -4 10 -10 10 -5 0
-10 -4 -10 -10z"/>
<path d="M1652 2525 c0 -16 2 -22 5 -12 2 9 2 23 0 30 -3 6 -5 -1 -5 -18z"/>
<path d="M4289 2468 c-7 -13 -15 -25 -19 -28 -12 -8 -40 -68 -40 -85 0 -20
-16 -20 -24 1 -3 8 -10 13 -15 9 -11 -6 27 -71 47 -79 7 -3 10 -1 7 4 -13 20
7 89 40 144 18 31 30 56 25 56 -5 0 -15 -10 -21 -22z"/>
<path d="M5540 2471 c0 -5 7 -11 14 -14 10 -4 13 -1 9 9 -6 15 -23 19 -23 5z"/>
<path d="M1875 2380 c-4 -36 -3 -66 4 -78 8 -14 8 -21 0 -24 -12 -4 -1 -38 12
-38 4 0 6 7 3 15 -13 34 35 5 55 -33 10 -18 10 -27 0 -38 -6 -8 -9 -14 -7 -14
3 0 0 -24 -6 -52 -6 -29 -9 -75 -6 -103 5 -46 7 -50 33 -53 15 -2 27 -9 27
-15 0 -7 4 -6 11 3 8 12 9 10 7 -10 -2 -14 -9 -24 -16 -22 -8 1 -12 -7 -11
-20 4 -42 -1 -69 -11 -63 -6 4 -7 -1 -3 -11 4 -12 2 -15 -8 -12 -8 3 -17 18
-20 34 -5 22 -7 24 -8 7 -1 -17 -6 -21 -28 -19 -21 3 -29 -2 -34 -18 -3 -11
-11 -20 -18 -18 -8 2 -10 -4 -6 -17 3 -11 2 -28 -4 -38 -12 -22 -31 -127 -30
-162 l1 -26 8 25 c4 14 20 57 35 95 14 39 31 82 37 98 6 17 17 27 30 27 12 0
67 -29 123 -65 56 -36 110 -65 121 -64 15 0 16 2 4 7 -37 17 -160 106 -160
116 0 16 40 119 50 130 5 5 24 -1 45 -14 35 -22 37 -22 27 -3 -6 11 -19 26
-28 34 -15 13 -15 14 7 20 13 4 39 7 57 8 18 1 31 5 28 10 -3 4 -53 10 -111
13 -58 3 -111 10 -117 16 -11 11 4 150 21 179 7 14 11 13 28 -3 35 -35 128
-110 167 -137 l39 -26 2 -78 c1 -43 -1 -99 -4 -123 -5 -40 -9 -46 -36 -51
l-30 -7 28 -1 c22 -1 27 -6 28 -28 2 -49 27 75 35 169 4 54 11 88 18 88 6 0
40 -18 75 -40 36 -21 67 -37 70 -34 9 9 -35 43 -104 79 -104 55 -236 157 -321
248 l-75 81 7 52 c5 46 4 52 -14 56 -18 5 -21 -1 -27 -52z"/>
<path d="M5385 2430 c3 -5 8 -10 11 -10 2 0 4 5 4 10 0 6 -5 10 -11 10 -5 0
-7 -4 -4 -10z"/>
<path d="M1861 2414 c0 -11 3 -14 6 -6 3 7 2 16 -1 19 -3 4 -6 -2 -5 -13z"/>
<path d="M5376 2402 c-3 -5 1 -9 9 -9 8 0 15 4 15 9 0 4 -4 8 -9 8 -6 0 -12
-4 -15 -8z"/>
<path d="M5406 2374 c-4 -14 -5 -28 -3 -31 3 -2 8 8 11 23 4 14 5 28 3 31 -3
2 -8 -8 -11 -23z"/>
<path d="M1649 2385 c-9 -14 5 -112 13 -99 4 5 4 32 0 60 -4 27 -10 45 -13 39z"/>
<path d="M5460 2360 c0 -5 -7 -7 -15 -4 -8 4 -15 1 -15 -6 0 -15 42 -9 48 8 2
6 -1 12 -7 12 -6 0 -11 -4 -11 -10z"/>
<path d="M5670 2309 c0 -5 5 -7 10 -4 6 3 10 8 10 11 0 2 -4 4 -10 4 -5 0 -10
-5 -10 -11z"/>
<path d="M5440 2300 c0 -5 5 -10 10 -10 6 0 10 5 10 10 0 6 -4 10 -10 10 -5 0
-10 -4 -10 -10z"/>
<path d="M4260 2260 c0 -5 5 -10 11 -10 5 0 7 5 4 10 -3 6 -8 10 -11 10 -2 0
-4 -4 -4 -10z"/>
<path d="M1640 2250 c0 -5 5 -10 10 -10 6 0 10 -7 10 -17 0 -9 3 -14 6 -10 8
8 -5 47 -17 47 -5 0 -9 -4 -9 -10z"/>
<path d="M1920 2210 c0 -5 5 -10 11 -10 5 0 7 5 4 10 -3 6 -8 10 -11 10 -2 0
-4 -4 -4 -10z"/>
<path d="M5620 2201 c0 -6 5 -13 10 -16 6 -3 10 1 10 9 0 9 -4 16 -10 16 -5 0
-10 -4 -10 -9z"/>
<path d="M732 2188 c-28 -35 -102 -152 -102 -162 0 -6 10 5 22 24 13 19 26 37
30 38 5 2 8 10 8 17 0 8 14 30 31 50 18 20 29 38 27 41 -3 2 -10 -1 -16 -8z"/>
<path d="M5525 2180 c3 -5 8 -10 11 -10 2 0 4 5 4 10 0 6 -5 10 -11 10 -5 0
-7 -4 -4 -10z"/>
<path d="M5540 2146 c0 -9 5 -16 10 -16 6 0 10 4 10 9 0 6 -4 13 -10 16 -5 3
-10 -1 -10 -9z"/>
<path d="M6070 2156 c0 -3 6 -11 13 -18 8 -7 26 -32 40 -55 37 -59 87 -114 98
-107 16 10 10 23 -18 36 -17 8 -28 21 -28 33 0 11 -5 19 -12 18 -6 -2 -15 6
-18 17 -4 11 -10 20 -14 20 -3 0 -15 14 -24 30 -15 25 -37 41 -37 26z"/>
<path d="M1106 2119 c-8 -42 0 -50 9 -9 4 17 5 34 2 36 -2 3 -7 -10 -11 -27z"/>
<path d="M1632 2100 c0 -14 2 -19 5 -12 2 6 2 18 0 25 -3 6 -5 1 -5 -13z"/>
<path d="M5070 2061 c0 -5 7 -12 16 -15 14 -5 15 -4 4 9 -14 17 -20 19 -20 6z"/>
<path d="M1640 2048 c0 -7 5 -20 10 -28 8 -12 10 -11 10 7 0 12 -4 25 -10 28
-5 3 -10 0 -10 -7z"/>
<path d="M605 1999 c-4 -6 -5 -12 -2 -15 2 -3 7 2 10 11 7 17 1 20 -8 4z"/>
<path d="M5971 1984 c0 -11 3 -14 6 -6 3 7 2 16 -1 19 -3 4 -6 -2 -5 -13z"/>
<path d="M746 1924 c-16 -25 -26 -47 -23 -50 2 -3 17 16 31 42 34 61 29 66 -8
8z"/>
<path d="M563 1938 c-11 -13 -28 -36 -38 -53 l-18 -30 24 25 c24 25 63 80 56
80 -2 0 -13 -10 -24 -22z"/>
<path d="M1130 1957 c0 -15 28 -75 39 -81 6 -4 11 -4 11 1 0 11 -49 90 -50 80z"/>
<path d="M6000 1952 c0 -12 19 -26 26 -19 2 2 -2 10 -11 17 -9 8 -15 8 -15 2z"/>
<path d="M4261 1922 c-10 -26 -33 -113 -46 -179 -7 -37 9 -45 20 -10 4 12 8
24 9 27 1 3 5 27 10 53 4 27 14 66 21 88 16 44 3 63 -14 21z"/>
<path d="M1688 1900 c2 -16 8 -27 13 -24 13 8 11 30 -4 43 -11 8 -13 5 -9 -19z"/>
<path d="M6036 1905 c-3 -8 -1 -15 4 -15 6 0 10 7 10 15 0 8 -2 15 -4 15 -2 0
-6 -7 -10 -15z"/>
<path d="M6260 1906 c0 -8 5 -18 10 -21 6 -3 10 1 10 9 0 8 -4 18 -10 21 -5 3
-10 -1 -10 -9z"/>
<path d="M2777 1903 c-4 -3 -7 -13 -7 -22 1 -13 3 -13 11 2 11 19 8 33 -4 20z"/>
<path d="M5197 1865 c3 -8 9 -12 14 -9 12 7 11 11 -5 17 -10 4 -13 1 -9 -8z"/>
<path d="M142 1850 c0 -14 2 -19 5 -12 2 6 2 18 0 25 -3 6 -5 1 -5 -13z"/>
<path d="M1146 1843 c-6 -14 -5 -15 5 -6 7 7 10 15 7 18 -3 3 -9 -2 -12 -12z"/>
<path d="M1746 1845 c-3 -9 -6 -22 -5 -28 0 -7 5 -1 10 12 5 13 8 26 5 28 -2
2 -6 -3 -10 -12z"/>
<path d="M5915 1849 c-4 -6 -5 -12 -2 -15 2 -3 7 2 10 11 7 17 1 20 -8 4z"/>
<path d="M483 1828 c-25 -28 -93 -142 -93 -156 0 -5 -7 -15 -15 -22 -7 -6 -28
-37 -46 -68 -18 -31 -39 -62 -47 -68 -9 -7 -11 -13 -5 -17 6 -4 25 17 44 46
110 173 191 307 185 307 -1 0 -12 -10 -23 -22z"/>
<path d="M5226 1843 c6 -4 14 -15 17 -23 5 -11 6 -9 4 4 -1 11 -9 21 -17 23
-10 3 -11 2 -4 -4z"/>
<path d="M6100 1835 c7 -9 15 -13 17 -11 7 7 -7 26 -19 26 -6 0 -6 -6 2 -15z"/>
<path d="M6312 1833 c9 -10 18 -25 21 -33 4 -10 6 -11 6 -2 1 20 -18 52 -31
52 -7 0 -5 -7 4 -17z"/>
<path d="M685 1829 c-4 -6 -5 -12 -2 -15 2 -3 7 2 10 11 7 17 1 20 -8 4z"/>
<path d="M1840 1825 c-11 -13 -10 -14 4 -9 9 3 16 10 16 15 0 13 -6 11 -20 -6z"/>
<path d="M6056 1803 c-6 -14 -5 -15 5 -6 7 7 10 15 7 18 -3 3 -9 -2 -12 -12z"/>
<path d="M6131 1810 c-1 -18 16 -46 23 -40 2 3 -2 16 -9 30 -8 15 -14 19 -14
10z"/>
<path d="M1205 1800 c-3 -5 -1 -10 4 -10 6 0 11 5 11 10 0 6 -2 10 -4 10 -3 0
-8 -4 -11 -10z"/>
<path d="M1761 1794 c0 -11 3 -14 6 -6 3 7 2 16 -1 19 -3 4 -6 -2 -5 -13z"/>
<path d="M5945 1800 c3 -5 8 -10 11 -10 2 0 4 5 4 10 0 6 -5 10 -11 10 -5 0
-7 -4 -4 -10z"/>
<path d="M6080 1800 c0 -5 10 -14 22 -21 18 -10 20 -9 15 6 -4 9 -7 19 -7 21
0 2 -7 4 -15 4 -8 0 -15 -4 -15 -10z"/>
<path d="M1805 1771 c-3 -5 -1 -12 5 -16 5 -3 10 1 10 9 0 18 -6 21 -15 7z"/>
<path d="M1205 1760 c-3 -6 1 -7 9 -4 18 7 21 14 7 14 -6 0 -13 -4 -16 -10z"/>
<path d="M1737 1764 c-6 -7 19 -64 28 -64 7 0 -6 53 -14 63 -4 4 -10 4 -14 1z"/>
<path d="M6155 1749 c-4 -6 -5 -12 -2 -15 2 -3 7 2 10 11 7 17 1 20 -8 4z"/>
<path d="M5820 1730 c0 -5 5 -10 11 -10 5 0 7 5 4 10 -3 6 -8 10 -11 10 -2 0
-4 -4 -4 -10z"/>
<path d="M6176 1725 c-4 -10 1 -15 14 -15 22 0 26 -10 9 -27 -8 -8 -8 -13 0
-17 6 -4 11 -2 11 4 0 7 7 10 15 6 10 -4 8 5 -8 29 -24 38 -32 42 -41 20z"/>
<path d="M6016 1707 c3 -10 9 -15 12 -12 3 3 0 11 -7 18 -10 9 -11 8 -5 -6z"/>
<path d="M1280 1689 c-19 -10 -29 -19 -23 -19 19 0 63 22 63 32 0 10 2 11 -40
-13z"/>
<path d="M1777 1660 c3 -11 7 -20 9 -20 2 0 4 9 4 20 0 11 -4 20 -9 20 -5 0
-7 -9 -4 -20z"/>
<path d="M1160 1659 c0 -5 5 -7 10 -4 6 3 10 8 10 11 0 2 -4 4 -10 4 -5 0 -10
-5 -10 -11z"/>
<path d="M5911 1644 c0 -11 3 -14 6 -6 3 7 2 16 -1 19 -3 4 -6 -2 -5 -13z"/>
<path d="M2190 1593 c-6 -32 -23 -96 -37 -143 -14 -47 -34 -114 -43 -150 -26
-95 -46 -145 -92 -237 -39 -76 -46 -84 -91 -103 -27 -12 -53 -20 -60 -17 -6 2
-16 19 -23 38 l-12 34 -1 -40 c-1 -54 10 -69 43 -61 25 6 26 5 26 -45 0 -38
-8 -65 -30 -105 -16 -30 -26 -54 -22 -54 5 0 39 57 76 128 37 70 81 150 97
177 65 113 159 414 185 593 10 62 -3 51 -16 -15z m-246 -678 c-6 -16 -24 -21
-24 -7 0 11 11 22 21 22 5 0 6 -7 3 -15z"/>
<path d="M1150 1620 c0 -5 5 -10 10 -10 6 0 10 5 10 10 0 6 -4 10 -10 10 -5 0
-10 -4 -10 -10z"/>
<path d="M210 1591 c0 -25 6 -27 13 -6 4 8 2 17 -3 20 -6 4 -10 -3 -10 -14z"/>
<path d="M5907 1599 c7 -7 15 -10 18 -7 3 3 -2 9 -12 12 -14 6 -15 5 -6 -5z"/>
<path d="M6297 1589 c4 -13 8 -18 11 -10 2 7 -1 18 -6 23 -8 8 -9 4 -5 -13z"/>
<path d="M1177 1580 c8 -30 21 -33 19 -5 0 14 -6 25 -13 25 -6 0 -9 -9 -6 -20z"/>
<path d="M1456 1585 c4 -8 10 -15 15 -15 5 0 9 7 9 15 0 8 -7 15 -15 15 -9 0
-12 -6 -9 -15z"/>
<path d="M5216 1585 c-3 -8 -1 -15 3 -15 5 0 11 7 15 15 3 8 1 15 -3 15 -5 0
-11 -7 -15 -15z"/>
<path d="M1985 1559 c-12 -19 5 -23 22 -6 16 16 16 17 1 17 -9 0 -20 -5 -23
-11z"/>
<path d="M6110 1560 c0 -5 5 -10 11 -10 5 0 7 5 4 10 -3 6 -8 10 -11 10 -2 0
-4 -4 -4 -10z"/>
<path d="M1216 1545 c-3 -9 0 -23 8 -31 13 -12 14 -11 12 11 -3 32 -12 40 -20
20z"/>
<path d="M5195 1550 c3 -5 11 -10 16 -10 6 0 7 5 4 10 -3 6 -11 10 -16 10 -6
0 -7 -4 -4 -10z"/>
<path d="M1811 1473 c1 -62 6 -56 11 15 2 23 0 42 -4 42 -5 0 -7 -26 -7 -57z"/>
<path d="M6293 1509 c-2 -23 3 -25 10 -4 4 8 3 16 -1 19 -4 3 -9 -4 -9 -15z"/>
<path d="M231 1504 c0 -11 3 -14 6 -6 3 7 2 16 -1 19 -3 4 -6 -2 -5 -13z"/>
<path d="M1650 1483 l-25 -15 28 6 c15 4 27 2 27 -3 0 -17 26 -19 45 -4 19 15
19 15 -2 8 -28 -8 -51 4 -32 16 25 16 -14 8 -41 -8z"/>
<path d="M6170 1491 c0 -6 4 -13 10 -16 6 -3 7 1 4 9 -7 18 -14 21 -14 7z"/>
<path d="M5090 1469 c0 -5 5 -7 10 -4 6 3 10 8 10 11 0 2 -4 4 -10 4 -5 0 -10
-5 -10 -11z"/>
<path d="M300 1461 c0 -6 4 -13 10 -16 6 -3 7 1 4 9 -7 18 -14 21 -14 7z"/>
<path d="M5116 1453 c-6 -14 -5 -15 5 -6 7 7 10 15 7 18 -3 3 -9 -2 -12 -12z"/>
<path d="M225 1408 c-66 -120 -110 -217 -146 -318 -27 -77 -38 -278 -20 -373
25 -137 49 -194 108 -258 100 -107 258 -191 444 -234 110 -25 108 -18 -11 34
-26 11 -61 32 -70 41 -20 21 -90 70 -90 63 0 -10 49 -58 94 -91 16 -12 23 -22
16 -22 -21 0 -224 97 -254 121 -6 5 -25 20 -42 34 -18 14 -36 25 -40 25 -27 1
-114 142 -114 185 0 12 -4 25 -9 30 -15 17 -31 137 -31 232 0 86 8 126 51 263
13 40 116 258 132 278 7 9 13 9 23 1 18 -14 18 2 1 25 -12 16 -16 13 -42 -36z"/>
<path d="M5325 1451 c-3 -5 -1 -12 5 -16 5 -3 10 1 10 9 0 18 -6 21 -15 7z"/>
<path d="M6385 1450 c-3 -5 -1 -10 4 -10 6 0 11 5 11 10 0 6 -2 10 -4 10 -3 0
-8 -4 -11 -10z"/>
<path d="M6190 1443 c0 -4 5 -15 10 -23 8 -13 10 -13 10 2 0 9 -4 20 -10 23
-5 3 -10 3 -10 -2z"/>
<path d="M336 1405 c9 -14 19 -24 21 -21 6 6 -20 46 -30 46 -4 0 0 -11 9 -25z"/>
<path d="M1300 1426 c0 -2 7 -9 15 -16 9 -7 15 -8 15 -2 0 5 -7 12 -15 16 -8
3 -15 4 -15 2z"/>
<path d="M6340 1404 c0 -6 4 -14 9 -19 5 -6 19 -32 30 -60 19 -48 20 -49 20
-17 1 17 -3 32 -9 32 -5 0 -10 8 -10 18 0 11 -9 27 -20 37 -11 10 -20 14 -20
9z"/>
<path d="M300 1356 c42 -62 57 -68 22 -10 -15 26 -33 49 -40 52 -7 2 1 -17 18
-42z"/>
<path d="M6391 1374 c0 -11 3 -14 6 -6 3 7 2 16 -1 19 -3 4 -6 -2 -5 -13z"/>
<path d="M5135 1360 c3 -5 12 -7 20 -3 21 7 19 13 -6 13 -11 0 -18 -4 -14 -10z"/>
<path d="M390 1341 c0 -6 4 -13 10 -16 6 -3 7 1 4 9 -7 18 -14 21 -14 7z"/>
<path d="M1431 1334 c0 -11 3 -14 6 -6 3 7 2 16 -1 19 -3 4 -6 -2 -5 -13z"/>
<path d="M6031 1334 c0 -11 3 -14 6 -6 3 7 2 16 -1 19 -3 4 -6 -2 -5 -13z"/>
<path d="M1770 1320 c0 -5 5 -10 10 -10 6 0 10 5 10 10 0 6 -4 10 -10 10 -5 0
-10 -4 -10 -10z"/>
<path d="M5671 1284 c0 -11 3 -14 6 -6 3 7 2 16 -1 19 -3 4 -6 -2 -5 -13z"/>
<path d="M6066 1283 c-6 -14 -5 -15 5 -6 7 7 10 15 7 18 -3 3 -9 -2 -12 -12z"/>
<path d="M5151 1264 c0 -11 3 -14 6 -6 3 7 2 16 -1 19 -3 4 -6 -2 -5 -13z"/>
<path d="M3583 1230 c3 -19 12 -64 20 -100 11 -47 15 -56 16 -33 1 31 -26 153
-36 163 -3 3 -3 -11 0 -30z"/>
<path d="M5425 1240 c3 -5 8 -10 11 -10 2 0 4 5 4 10 0 6 -5 10 -11 10 -5 0
-7 -4 -4 -10z"/>
<path d="M390 1231 c0 -6 4 -13 10 -16 6 -3 7 1 4 9 -7 18 -14 21 -14 7z"/>
<path d="M5690 1235 c0 -5 5 -17 10 -25 5 -8 10 -10 10 -5 0 6 -5 17 -10 25
-5 8 -10 11 -10 5z"/>
<path d="M5780 1233 c0 -4 5 -15 10 -23 8 -13 10 -13 10 2 0 9 -4 20 -10 23
-5 3 -10 3 -10 -2z"/>
<path d="M6285 1210 c-3 -5 -1 -10 4 -10 6 0 11 5 11 10 0 6 -2 10 -4 10 -3 0
-8 -4 -11 -10z"/>
<path d="M5411 1203 c0 -4 4 -17 9 -28 8 -19 9 -19 9 2 1 12 -3 25 -9 28 -5 3
-10 3 -9 -2z"/>
<path d="M425 1180 c3 -5 11 -10 16 -10 6 0 7 5 4 10 -3 6 -11 10 -16 10 -6 0
-7 -4 -4 -10z"/>
<path d="M555 1170 c3 -5 8 -10 11 -10 2 0 4 5 4 10 0 6 -5 10 -11 10 -5 0 -7
-4 -4 -10z"/>
<path d="M5702 1160 c0 -14 2 -19 5 -12 2 6 2 18 0 25 -3 6 -5 1 -5 -13z"/>
<path d="M6327 1150 c6 -38 10 -46 19 -38 3 3 -2 21 -10 39 l-15 34 6 -35z"/>
<path d="M5425 1140 c3 -5 8 -10 11 -10 2 0 4 5 4 10 0 6 -5 10 -11 10 -5 0
-7 -4 -4 -10z"/>
<path d="M475 1105 c3 -22 8 -56 10 -75 8 -68 14 -93 24 -103 14 -14 14 -47 0
-47 -14 0 -7 -42 9 -48 6 -2 12 4 12 14 0 13 13 5 47 -29 25 -26 44 -50 40
-53 -4 -4 -13 -1 -22 6 -20 17 -19 6 1 -15 15 -14 15 -18 0 -40 -14 -22 -15
-25 -1 -25 8 0 15 7 15 15 0 8 4 15 9 15 5 0 17 3 27 7 12 4 15 3 10 -5 -4 -8
-2 -10 8 -6 8 3 26 -7 43 -23 15 -16 45 -37 65 -48 20 -10 35 -22 32 -26 -2
-4 8 -10 23 -14 15 -3 46 -15 70 -26 23 -10 47 -19 53 -19 6 0 8 -4 5 -10 -3
-5 -1 -10 6 -10 10 0 10 -3 1 -12 -8 -8 -15 -8 -26 1 -9 7 -16 8 -20 2 -10
-16 31 -23 70 -12 20 5 48 8 63 5 14 -2 56 -6 94 -7 105 -5 76 16 -43 30 -122
14 -185 38 -300 112 -195 126 -281 244 -294 404 -2 28 -11 56 -20 65 -16 16
-17 14 -11 -23z"/>
<path d="M5248 1095 c2 -19 6 -35 8 -35 2 0 4 16 4 35 0 19 -4 35 -8 35 -4 0
-6 -16 -4 -35z"/>
<path d="M640 1107 c0 -3 12 -12 26 -22 15 -9 23 -12 20 -6 -7 11 -46 35 -46
28z"/>
<path d="M6350 1095 c0 -15 18 -40 24 -34 3 3 -1 14 -9 25 -8 10 -14 15 -15 9z"/>
<path d="M6131 1064 c0 -11 3 -14 6 -6 3 7 2 16 -1 19 -3 4 -6 -2 -5 -13z"/>
<path d="M710 1055 c0 -2 15 -12 33 -20 l32 -16 -24 21 c-22 19 -41 26 -41 15z"/>
<path d="M1351 1028 c0 -9 -4 -25 -7 -35 -5 -14 -4 -15 5 -7 7 7 11 22 8 35
-2 13 -5 16 -6 7z"/>
<path d="M5501 1024 c0 -11 3 -14 6 -6 3 7 2 16 -1 19 -3 4 -6 -2 -5 -13z"/>
<path d="M3635 960 c3 -36 15 -99 25 -140 l20 -75 -4 60 c-5 69 -19 147 -35
190 -9 25 -10 20 -6 -35z"/>
<path d="M675 975 c17 -14 33 -25 37 -25 4 0 26 -13 50 -28 49 -33 106 -57
114 -49 3 3 -5 8 -18 12 -13 4 -48 22 -78 40 -30 18 -73 43 -95 54 l-40 22 30
-26z"/>
<path d="M5481 974 c0 -11 3 -14 6 -6 3 7 2 16 -1 19 -3 4 -6 -2 -5 -13z"/>
<path d="M1744 944 c-18 -42 -36 -102 -60 -199 -8 -33 -28 -103 -44 -155 -39
-128 -60 -234 -60 -300 0 -93 42 -290 62 -290 12 0 10 17 -6 48 -16 31 -40
187 -40 252 1 82 32 216 74 325 15 40 40 132 40 150 0 10 9 46 20 79 11 34 25
74 30 90 15 45 3 44 -16 0z"/>
<path d="M880 960 c8 -5 20 -10 25 -10 6 0 3 5 -5 10 -8 5 -19 10 -25 10 -5 0
-3 -5 5 -10z"/>
<path d="M1330 963 c0 -6 -22 -34 -49 -61 -58 -60 -82 -66 -211 -60 -50 2 -90
1 -90 -3 0 -19 160 -26 218 -10 61 18 159 117 138 139 -3 3 -6 1 -6 -5z"/>
<path d="M5140 960 c-9 -6 -10 -10 -3 -10 6 0 15 5 18 10 8 12 4 12 -15 0z"/>
<path d="M6169 923 c3 -40 5 -44 12 -25 7 18 -3 72 -13 72 -2 0 -1 -21 1 -47z"/>
<path d="M5250 951 c0 -6 5 -13 10 -16 6 -3 10 1 10 9 0 9 -4 16 -10 16 -5 0
-10 -4 -10 -9z"/>
<path d="M6391 944 c0 -11 3 -14 6 -6 3 7 2 16 -1 19 -3 4 -6 -2 -5 -13z"/>
<path d="M480 935 c0 -5 5 -17 10 -25 5 -8 10 -10 10 -5 0 6 -5 17 -10 25 -5
8 -10 11 -10 5z"/>
<path d="M5542 905 c0 -16 2 -22 5 -12 2 9 2 23 0 30 -3 6 -5 -1 -5 -18z"/>
<path d="M5230 903 c0 -10 5 -25 10 -33 8 -12 10 -9 10 12 0 15 -4 30 -10 33
-5 3 -10 -2 -10 -12z"/>
<path d="M5764 827 c-1 -40 1 -55 6 -41 10 25 11 92 2 98 -4 2 -8 -24 -8 -57z"/>
<path d="M901 866 c4 -4 21 -11 39 -16 19 -5 29 -6 24 -1 -10 10 -72 26 -63
17z"/>
<path d="M2638 788 c-10 -40 -21 -95 -24 -123 -3 -27 -12 -68 -19 -90 -18 -56
-47 -216 -41 -223 4 -3 6 0 6 6 0 17 47 15 54 -3 3 -8 13 -15 22 -15 13 0 11
5 -9 26 -18 17 -32 24 -45 20 -19 -6 -19 -4 -6 56 7 35 20 85 29 112 8 27 15
62 15 77 0 15 4 38 9 51 16 40 33 132 30 156 -3 13 -11 -6 -21 -50z"/>
<path d="M2736 803 c-6 -14 -5 -15 5 -6 7 7 10 15 7 18 -3 3 -9 -2 -12 -12z"/>
<path d="M3691 656 c-1 -63 19 -180 30 -169 4 4 4 26 -1 48 -5 22 -14 69 -18
105 l-9 65 -2 -49z"/>
<path d="M5281 674 c0 -11 3 -14 6 -6 3 7 2 16 -1 19 -3 4 -6 -2 -5 -13z"/>
<path d="M1811 654 c0 -11 3 -14 6 -6 3 7 2 16 -1 19 -3 4 -6 -2 -5 -13z"/>
<path d="M720 635 c0 -20 21 -30 31 -14 8 12 11 12 18 -1 6 -8 13 -11 17 -7
10 10 2 16 -35 27 -24 7 -31 6 -31 -5z"/>
<path d="M1771 577 c-17 -30 -31 -57 -31 -61 0 -3 -9 -25 -20 -49 -47 -102
-61 -153 -65 -231 -4 -83 -3 -80 20 49 12 64 31 116 85 230 56 115 62 150 11
62z"/>
<path d="M5281 594 c0 -11 3 -14 6 -6 3 7 2 16 -1 19 -3 4 -6 -2 -5 -13z"/>
<path d="M1210 540 c0 -5 7 -10 16 -10 11 0 14 -5 10 -16 -5 -14 -4 -15 9 -4
13 11 13 8 4 -19 -6 -17 -37 -57 -68 -88 -60 -60 -127 -93 -222 -112 -27 -5
-34 -9 -19 -10 67 -3 218 65 274 123 37 39 75 106 76 134 0 7 -15 12 -40 12
-22 0 -40 -4 -40 -10z"/>
<path d="M2801 525 c1 -19 18 -51 18 -35 0 8 -4 22 -9 30 -5 8 -9 11 -9 5z"/>
<path d="M4785 520 c3 -5 8 -10 11 -10 2 0 4 5 4 10 0 6 -5 10 -11 10 -5 0 -7
-4 -4 -10z"/>
<path d="M1018 513 c7 -3 16 -2 19 1 4 3 -2 6 -13 5 -11 0 -14 -3 -6 -6z"/>
<path d="M5247 493 c-4 -3 -7 -18 -6 -32 1 -26 1 -25 10 3 9 31 7 41 -4 29z"/>
<path d="M4785 479 c-4 -6 -5 -12 -2 -15 2 -3 7 2 10 11 7 17 1 20 -8 4z"/>
<path d="M3710 455 c0 -8 5 -15 10 -15 6 0 10 7 10 15 0 8 -4 15 -10 15 -5 0
-10 -7 -10 -15z"/>
<path d="M3720 418 c0 -8 40 -199 50 -237 6 -24 19 -56 29 -70 9 -14 23 -45
30 -68 7 -26 18 -43 26 -43 21 0 18 34 -4 54 -24 22 -66 158 -107 344 -2 12
-9 22 -14 22 -6 0 -10 -1 -10 -2z"/>
<path d="M5131 364 c0 -11 3 -14 6 -6 3 7 2 16 -1 19 -3 4 -6 -2 -5 -13z"/>
<path d="M2665 330 c3 -5 8 -10 11 -10 2 0 4 5 4 10 0 6 -5 10 -11 10 -5 0 -7
-4 -4 -10z"/>
<path d="M3513 309 c-18 -12 -33 -22 -33 -23 0 -4 135 5 150 10 12 5 12 8 -4
20 -28 20 -76 17 -113 -7z"/>
<path d="M5250 314 c0 -8 5 -12 10 -9 6 4 8 11 5 16 -9 14 -15 11 -15 -7z"/>
<path d="M6110 298 c0 -20 4 -39 9 -42 15 -10 8 -171 -6 -169 -7 2 -13 -2 -13
-8 0 -6 7 -8 16 -5 14 5 16 1 10 -34 -10 -65 10 -46 24 22 15 79 14 130 -4
197 -19 70 -36 88 -36 39z"/>
<path d="M3080 290 c0 -5 12 -10 28 -10 21 0 24 2 12 10 -20 13 -40 13 -40 0z"/>
<path d="M3685 290 c3 -5 10 -10 16 -10 5 0 9 5 9 10 0 6 -7 10 -16 10 -8 0
-12 -4 -9 -10z"/>
<path d="M830 270 c-34 -7 -34 -7 -5 -8 17 0 39 3 50 8 24 10 4 10 -45 0z"/>
<path d="M2521 264 c-1 -11 -4 -24 -8 -28 -4 -4 -15 -30 -24 -59 -9 -29 -20
-61 -24 -71 -6 -13 -5 -17 2 -13 14 9 66 165 59 180 -2 7 -5 3 -5 -9z"/>
<path d="M5251 268 c0 -9 -4 -25 -7 -35 -5 -17 -5 -17 6 0 6 10 9 25 7 35 -4
15 -5 15 -6 0z"/>
<path d="M6080 271 c0 -12 -122 -165 -178 -223 l-46 -48 32 0 c18 0 31 4 28 9
-3 5 7 22 22 38 71 77 173 233 153 233 -6 0 -11 -4 -11 -9z"/>
<path d="M2663 200 c0 -30 2 -43 4 -27 2 15 2 39 0 55 -2 15 -4 2 -4 -28z"/>
<path d="M856 223 c-4 -5 -38 -11 -74 -15 l-67 -6 72 2 c66 1 94 9 81 21 -2 3
-8 2 -12 -2z"/>
<path d="M2566 139 c-9 -93 -1 -120 9 -32 3 32 9 70 11 86 3 15 1 27 -4 27 -5
0 -13 -36 -16 -81z"/>
<path d="M6075 200 c-3 -5 -2 -10 4 -10 5 0 13 5 16 10 3 6 2 10 -4 10 -5 0
-13 -4 -16 -10z"/>
<path d="M4700 180 c0 -5 5 -10 10 -10 6 0 10 5 10 10 0 6 -4 10 -10 10 -5 0
-10 -4 -10 -10z"/>
<path d="M6055 170 c-3 -5 -1 -10 4 -10 6 0 11 5 11 10 0 6 -2 10 -4 10 -3 0
-8 -4 -11 -10z"/>
<path d="M3651 144 c0 -11 3 -14 6 -6 3 7 2 16 -1 19 -3 4 -6 -2 -5 -13z"/>
<path d="M5546 144 c-4 -9 -4 -19 -1 -22 2 -3 7 3 11 12 4 9 4 19 1 22 -2 3
-7 -3 -11 -12z"/>
<path d="M3321 78 c-1 -46 3 -78 9 -78 12 0 12 94 0 130 -6 17 -8 2 -9 -52z"/>
<path d="M2656 105 c-3 -8 -1 -15 4 -15 6 0 10 7 10 15 0 8 -2 15 -4 15 -2 0
-6 -7 -10 -15z"/>
<path d="M5556 84 c-4 -9 -4 -19 -1 -22 2 -3 7 3 11 12 4 9 4 19 1 22 -2 3 -7
-3 -11 -12z"/>
<path d="M3636 63 c-4 -15 -9 -36 -12 -45 -3 -10 -1 -18 4 -18 5 0 12 19 16
41 8 48 2 64 -8 22z"/>
<path d="M2438 41 c-9 -22 -13 -41 -8 -41 10 0 33 56 28 71 -2 6 -11 -7 -20
-30z"/>
<path d="M2653 40 c0 -25 2 -35 4 -22 2 12 2 32 0 45 -2 12 -4 2 -4 -23z"/>
<path d="M5526 63 c-6 -14 -5 -15 5 -6 7 7 10 15 7 18 -3 3 -9 -2 -12 -12z"/>
<path d="M6092 40 c0 -14 2 -19 5 -12 2 6 2 18 0 25 -3 6 -5 1 -5 -13z"/>
<path d="M5960 30 c0 -5 5 -10 11 -10 5 0 7 5 4 10 -3 6 -8 10 -11 10 -2 0 -4
-4 -4 -10z"/>
</g>
</svg>
